<?xml version="1.0" encoding="utf-8"?>
<!-- Generator: Adobe Illustrator 24.0.2, SVG Export Plug-In . SVG Version: 6.00 Build 0)  -->
<svg version="1.1" id="Calque_1" xmlns="http://www.w3.org/2000/svg" xmlns:xlink="http://www.w3.org/1999/xlink" x="0px" y="0px"
	 viewBox="0 0 313.6 350.3" style="enable-background:new 0 0 313.6 350.3;" xml:space="preserve">
<title>askff</title>
<path d="M64.2,350.3c-23.2,0-39.7-6.8-49.5-20.5S0,296.8,0,271.8c0-6.7,0.3-13.6,1-20.9c2.9-37.1,8.5-69,16.9-95.7
	s18.7-49.3,30.9-67.8C61,68.8,74.8,53.8,90,42.3c14.7-11.1,30.9-20.1,48.1-26.6c16.5-6.3,33.8-10.5,51.3-12.6
	c17.1-2,34.2-3.1,51.4-3.1c6.3,0,11.2,1.3,14.5,3.8c3.3,2.5,5.7,7.2,7.1,14s2.1,15.8,2.1,26.9c0,1.3-0.1,5.6-0.2,12.8
	c-0.2,7.3-0.4,21.7-0.7,43.1c-0.3,21.4-0.6,40.9-0.7,58.5c-0.2,17.6-0.2,28.7-0.2,33.1c0,27.9,0.5,60,1.4,96.1
	c0,15.2,4.3,28.1,12.9,38.5c8.6,10.5,20.8,15.7,36.6,15.7H123.3c27.9-1.6,49.2-6.3,64-14c14.4-7.4,25.7-19.6,31.9-34.5
	c6.5-15.3,10.2-34.2,10.9-56.9s1.2-49.7,1.2-81.1v-20.3c0.1-4.6-0.4-9.1-1.4-13.6c-1-3.5-2.5-6-4.8-7.6s-5.6-2.4-10-2.4
	c-7.3,0-14,3.5-20,10.5c-6,7-11.7,16-17.1,27.2c-5.9,12.4-11.2,25.1-15.7,38.1c-5.1,14.3-10.1,28.9-15.2,43.8
	c-5.1,14.9-10.5,29.4-16.2,43.5c-5.2,13-11.3,25.7-18.3,37.8c-6.5,11.1-13.7,20.1-21.7,26.9S74.1,350.3,64.2,350.3z M73.3,292.2
	c7.3-0.3,15-5.2,23.1-14.5c8.1-9.4,16.4-21.5,25-36.4s17-31.5,25.2-49.7c8.3-18.2,16-36.2,23.3-53.8s13.8-33.9,19.5-48.8
	s10.3-26.5,13.8-34.7c3.5-8.3,5.5-14,6-17.4c0.4-2.3,0.6-4.6,0.7-6.9c0.1-2.9-0.7-5.8-2.1-8.3c-1.4-2.4-3.7-4.1-6.4-4.8
	c-2.9-0.8-6-1.2-9-1.2H189c-22.2,1.3-42.1,6.2-59.7,14.8c-17,8.1-32.5,19.2-45.7,32.6c-12.9,13.2-23.7,28.1-32.2,44.5
	c-8.4,16-14.8,32.9-19.3,50.5c-4.3,17.1-6.5,29.9-6.7,38.3c-0.2,8.4-0.2,12.9-0.2,13.6c0,15.5,1.7,29.4,5.2,41.6
	c3.5,12.2,8.7,22.1,15.7,29.5c6.5,7.3,15.9,11.4,25.7,11.2h1.5V292.2z"/>
</svg>
