<svg id="Calque_1" data-name="Calque 1" xmlns="http://www.w3.org/2000/svg" viewBox="0 0 724.87 290.28"><title>aureliafoucher</title><path d="M434.61,341.57v4.13h-24c-9.25.41-17.25,1.41-26.25.41,0-1-1-3-1-4,1,0,3,0,4-1,2-11,0-22-6-29-7-9-25-8-37-3-1,0-2,6-2.49,8.56-1.14,4.72-2.09,9.4-2.09,9.4-2.83,9.46-1.17,14.2,2.66,14.5h3.32v4.13H320.53v-4.13h3.83c5.81-.3,8.47-6.41,10.64-13.43,0,0,1.06-3.58,2.66-9.7,3.74-16.33,10.74-32.33,14.47-48.2L354,264l7.44-25.17H392.2l6.36,19.36c.63,1.89,1.29,3.87,2,5.92,8.86,15,9.86,31,14.86,48,1,6,2,12,5.59,17,1.54,2.79,2.93,5.82,4.59,8.27s3.79,4,6.7,4.19Zm-50.9-35c-.31-14.49-3.31-30.49-12.81-41.68a46.65,46.65,0,0,1-4-9.48L363.76,246l-5.68,19.19c-1,3.54-1.55,6.89-2.28,10.23-1.4,9.73-6.4,19.73-10.4,28.73,10-1,19-2,28.81.13C379.7,305.39,383.71,306.6,383.71,306.6Z" transform="translate(-320.53 -238.78)"/><path d="M542.91,238.79v4.12h-4.66a11.63,11.63,0,0,0-11.17,8.18c-.7,2-1.11,4.37,0,6.39,2.31,4.63,4.31,10.63,3.31,15.63-7,18-8,37-6.51,56.05a25.74,25.74,0,0,1-3.32,6.5c-4.26,5.95-11.5,10-23.22,10H472.74c-26.11,0-34.09-14.05-34.09-31.32v-56c0-11.46-.5-15.43-6.32-15.43h-2.16v-4.12h47.89v4.12H475.9c-5.66,0-6.32,4-6.32,15.43V315c-1,24.14,14.63,26.89,27.11,26.43,12-.41,19-5.57,22.33-13.26a13.34,13.34,0,0,0,1.17-7c-2.79-15.06.21-29.06,4.21-44.06a28.11,28.11,0,0,0-2-15.61,9,9,0,0,1-1-3.16c0-11.46-4.32-15.43-10-15.43H503v-4.12Z" transform="translate(-320.53 -238.78)"/><path d="M658.71,341.57l.16,4.13H611l-.16-4.13h2.33c5.65,0,4.49-4-.5-15.42l-9-20.36a38,38,0,0,0-1.73-3.49c-5.54,3.81-14.54,2.81-18.54,7.81-3,3-2,12,2.75,16.21.22,2.69.27,5.09.42,7.07.45,5.95,1.89,8.18,6.13,8.18h2.16v4.13H547v-4.13h2.16c2.82,0,4.4-1,5.28-3.42-6-12-13-26-4-37,13-16,20-39,4.07-54.78-.85-2.42-2.43-3.42-5.34-3.42H547v-4.12h81c11.81,0,21.62,7.33,21.62,18.33V282c0,9.47-7.32,17.56-17,19.55l10.8,24.59c5,11.45,7.49,15.42,13.14,15.42ZM618.8,257.73c0-9-8-14.82-18-14.82H586.37V247a74.57,74.57,0,0,0,.67,10.76c3.36,16.36,2.36,32.36-3.64,47.36a60.85,60.85,0,0,0,17.17-5.62c2.76-1.58,5.14-2.05,7.29-2.91,6.45-2.52,10.94-8.42,10.94-15.18Z" transform="translate(-320.53 -238.78)"/><path d="M758.22,238.79V266.5c.18,3.61.18,7.61.18,11.61-1-6-4-11-6.6-16.29a49,49,0,0,0-4.37-6c-7.45-8.66-17.71-12.9-32.78-12.9H704.17a9.75,9.75,0,0,0,.85,3.32c6.38,11.88,9.38,26.88.38,38.88,11,8,30,14,36-3-2,11-8,21-9,32-4-13-20-25-28-22-10,3-8,24-3,36.39,1.82,4.1,2.76,7.38,2.78,9.57v3.5h10.48c21.1,0,32.77-8.3,40.49-25.42a76.88,76.88,0,0,0,2.85-7.4s.23,3.69.23,9.23V345.7H664.76v-4.13h2.16c5.83,0,6.33-4,6.33-15.42v-10.6c-2.85-16.44,2.15-31.44.41-47.43-.41-5.55-.41-9.78-.41-9.78,0-11.46-.5-15.43-6.33-15.43h-2.16v-4.12Z" transform="translate(-320.53 -238.78)"/><path d="M857.68,305.76c1.72,7.35,1.72,14.35,3.28,21a53.16,53.16,0,0,1,.58,9.22v9.7h-92v-4.13h2.16c5.66,0,6.33-4,6.33-15.42V258.34c0-11.46-.5-15.43-6.33-15.43h-2.16v-4.12h47.9v4.12h-2.16c-5.66,0-6.33,4-6.33,15.43v83.23h9c15.06,0,25.33-4.24,32.77-12.89a15.39,15.39,0,0,0,3.47-6.08c.62-2.42,1.07-5.09,1.59-7.92S857,308.89,857.68,305.76Z" transform="translate(-320.53 -238.78)"/><path d="M909.07,260.14c1.33,19-5.67,37-2.45,56.22a70.2,70.2,0,0,1,.87,9.79c0,11.45.67,15.42,6.32,15.42H916v4.13H868.08v-4.13h2.16c4.37,0,5.74-2.23,6.16-8.18a16.25,16.25,0,0,0-1.12-7.26c-9.88-21,3.12-40,6.12-61,1-9,0-24-11.89-22.43l-1.43-3.89H916v4.12h-2.16c-2.82,0-4.4,1-5.28,3.42a10.91,10.91,0,0,0-.41,5.16C908.39,253.87,908.74,256.74,909.07,260.14Z" transform="translate(-320.53 -238.78)"/><path d="M1033.4,341.57v4.13H985.51v-4.13h1.17c3.65-.3,5.32-4.73,2.82-13.59l-5.65-17.25H943.44l-4.82,16.34c-2.83,9.46-1.17,14.2,2.66,14.5h3.32v4.13H919.33v-4.13h3.83c5.81-.3,8.47-6.41,10.64-13.43l26.43-89.35H991l29.43,89.65v-.3c2.16,7,4.82,13.13,10.65,13.43Zm-50.88-35-20-60.64-18,60.64Z" transform="translate(-320.53 -238.78)"/><path d="M410.49,422.15v37.42c-7-22.44-17.87-33.29-40-33.29h-9.62v47.2h9.93c12.22,0,19.24-4.74,21.23-15v34.22c-2-10.24-9-15-21.23-15h-9.93v31.76c0,11.45.61,15.42,5.81,15.42h2v4.13h-44v-4.13h2c5.19,0,5.8-4,5.8-15.42V441.7c0-11.45-.61-15.42-5.8-15.42h-2v-4.13Z" transform="translate(-320.53 -238.78)"/><path d="M524,479.91c-2.55,14.2-7.55,29.2-18.43,38.95a30.44,30.44,0,0,1-6.47,4.23c-7.53,3.82-16.86,6-28.18,6-37.73,0-53.46-24-53.46-53.45s14.81-53.47,53.46-53.47c11.59,0,21,2.16,28.59,6a61.48,61.48,0,0,1,7.35,4.47c12.59,7.51,18.59,23.51,18.13,38.47A70.52,70.52,0,0,1,524,479.91Zm-27.89-4.29c6.34-16.51,2.34-36.51-13.72-45.33a18.72,18.72,0,0,0-5.26-2.92,19.44,19.44,0,0,0-6.21-1.09c-17.87-.16-25.2,22.15-25.2,49.34s6.87,49.32,25.2,49.32a19.55,19.55,0,0,0,6.34-1,18,18,0,0,0,5.33-2.88c6.86-10.94,5.86-23.94,10.1-36C493.61,481.93,494.78,478.79,496.06,475.62Z" transform="translate(-320.53 -238.78)"/><path d="M635.11,422.15v4.13h-4.28c-2.59,0-5.42,1-6.68,3.73-1.75,19.1-1.75,37.1-7.75,55.1-3,9,0,19,.44,27.59a11.77,11.77,0,0,1-2.25,6.32c-3.92,6-10.56,10.05-21.33,10.05h-22.6c-24,0-31.31-14.06-31.31-31.32,0,0,0-1.55-.13-3.83.18-12.81.18-24.81.25-37.41-.12-4.41-.12-8.05-.12-10.65V441.7c0-11.45-.46-15.42-5.8-15.42h-2v-4.13h44v4.13h-2c-5.19,0-5.8,4-5.8,15.42,0,0,0,1.57.17,3.92.47,16.49-1.53,32.49-.36,48.22.18,2.94.19,4.52.19,4.52-.92,24.14,13.43,26.89,24.89,26.43a24.58,24.58,0,0,0,13.23-3.9,18.78,18.78,0,0,0,4.33-4.1c1.19-18.68,1.19-36.68,7.19-54.68,5-14,2-40-18.75-35.86l-.19-4.1Z" transform="translate(-320.53 -238.78)"/><path d="M714.65,501.75c3.75,4.36,11.75,9.36,7,15.5a14.58,14.58,0,0,1-4.4,4.09c-7.06,4.68-16.36,7.22-28.58,7.73h-3c-18.86,0-31.65-6-39.73-15.68a40.74,40.74,0,0,1-4.29-6.23c-18.15-18.05-3.15-42.05,1-61.93a20.16,20.16,0,0,1,3.36-7.4c8.09-9.68,20.88-15.68,39.67-15.68,13.34,0,23.76,2.52,31.53,7.77,1.94,1.31,3.73,2.79,5.89,4.26,2.41.93,6.41,3.93,5.41,4.93-3,7-11,11-17,16,3-6-2-11-3.56-15.92a25,25,0,0,0-4.56-7.24c-5.57-6.13-13.9-8.57-22.14-4.3-14,7.34-18.48,32.24-18.48,48s3.51,30.08,9,39.1c4.27,7.17,10.39,10.22,16.8,10.22a28.85,28.85,0,0,0,17.77-6,32.7,32.7,0,0,0,4.64-4.24,12.47,12.47,0,0,0,2.49-6C713.84,506.47,714.28,504.13,714.65,501.75Z" transform="translate(-320.53 -238.78)"/><path d="M831.32,441.7v67.82c0,11.45.62,15.42,5.81,15.42h2.14v4.13h-44v-4.13h2c5.2,0,5.81-4,5.81-15.42V477.76H792.24a19.84,19.84,0,0,0-6.35,1.06c-5.49,2.29-12.49,1.29-15.49,4.29-8,6-4,18-2.42,27a25.16,25.16,0,0,1,1,6.61c.42,6,1.73,8.18,5.63,8.18h2v4.13h-44v-4.13h2c2.6,0,4.05-1,4.85-3.42-3.09-10.41-6.09-20.41-3.09-30.41,5-20,16-42,3.15-61.41-.78-2.42-2.23-3.42-4.91-3.42h-2v-4.13h44v4.13h-2c-3.9,0-5.21,2.23-5.63,8.18a27.85,27.85,0,0,0,.52,7.77c1.85,11.88,2.85,23.88-1.15,35.88,6,0,12-2,17.6-3.58a18.88,18.88,0,0,1,6.24-1h10.83V441.7c0-11.45-.61-15.42-5.81-15.42h-2v-4.13h44v4.13h-2.14C831.94,426.28,831.32,430.25,831.32,441.7Z" transform="translate(-320.53 -238.78)"/><path d="M932.18,422.15a43.31,43.31,0,0,0,1.23,9.21c2,7.75,6,15.75,3,23.75-2-7-5-12-10.83-15.52a62.38,62.38,0,0,1-7.73-5.08c-6.35-5.52-14.6-8.23-25.67-8.23h-9.63v47.2h9.93a33,33,0,0,0,8.2-.92c6.73-3.45,12.73-9.45,14.73-17.45,0,12-4,23-3,35,0-6-5-12-11.74-11.47a34.44,34.44,0,0,0-8.19-.88h-9.93v47.18h9.63c11.07,0,19.32-2.71,25.67-8.23a35.69,35.69,0,0,0,5.77-6.46c1.79-8.14,1.79-16.14,4.79-23.14-2,11,3,21,3.78,32.26v9.7H846.35v-4.13h2c5.35,0,5.81-4,5.81-15.42V441.7c0-11.45-.46-15.42-5.81-15.42h-2v-4.13Z" transform="translate(-320.53 -238.78)"/><path d="M1045.26,524.94l.14,4.13h-44l-.15-4.13h2.14c5.19,0,4.12-4-.46-15.42l-4.89-12.07a57.34,57.34,0,0,0-3.56-7.77c-4.1-6.57-13.1,2.43-19.1.43,0,5,0,11,2.31,16.48.68,1.72,1.11,2.93,1.11,2.93,0,11.45.61,15.42,5.8,15.42h2v4.13h-44v-4.13h2c2.59,0,4-1,4.85-3.42a7.16,7.16,0,0,0-.07-4.78c-11-20.63,1-39.63,6-60.63,2-9,2-19-4.55-26.4-2.08-2.44-3.57-3.43-6.24-3.43h-2v-4.13H1017c10.85,0,19.86,7.34,19.86,18.34v24.89a20.16,20.16,0,0,1-15.58,19.55l9.92,24.59c4.59,11.45,6.88,15.42,12.07,15.42Zm-36.66-83.85c0-9-7.33-14.81-16.5-14.81H978.82v4.08a52.89,52.89,0,0,0,1.36,11.4c2.22,15.35.22,30.35-3.78,44.35,8-1,16-1,22.14-6.14a16.87,16.87,0,0,0,5.25-3.58,16.45,16.45,0,0,0,4.81-11.62Z" transform="translate(-320.53 -238.78)"/></svg>