<svg xmlns="http://www.w3.org/2000/svg" viewBox="0 0 158.09 60"><defs><style>.cls-1{fill:#79797c;}.cls-2{fill:#1e1e1d;}</style></defs><title>Fichier 17graphismedecor</title><g id="Calque_2" data-name="Calque 2"><g id="Calque_1-2" data-name="Calque 1"><path class="cls-1" d="M68.36,39.4l-5.08,5.5H60.65l3.49-5.5Z"/><path d="M70.36,36.4l-5.08,5.5H62.65l3.49-5.5Z"/><path class="cls-1" d="M15.36,28.08A5.29,5.29,0,0,1,12,30.84a15.73,15.73,0,0,1-7.74.42,7.66,7.66,0,0,1-2.85-1.11A2.7,2.7,0,0,1,.12,28,5,5,0,0,1,1,25.41c-1.38-1.44-.45-3.93.63-5.28A5.63,5.63,0,0,1,0,16.05c0-3.3,1.89-6,7.41-6,2.64,0,4.44.6,5.61,1.62a1.83,1.83,0,0,0-.84-1.62h3.54l-1.56,3.06a6.27,6.27,0,0,1,.63,2.91c0,3.3-2.19,6-7.38,6a9.5,9.5,0,0,1-4.62-1,1.71,1.71,0,0,0-.39,1.41c.48,1.17,4.65.51,5.7.39,2-.24,3.87-.51,5.73.57A3.52,3.52,0,0,1,15.36,28.08ZM10,26.58c-1.65.21-5,.54-7.29-.18-1,1.62-.84,3.45,1.8,4A14.5,14.5,0,0,0,11.64,30C14.82,28.89,13.65,26.1,10,26.58Zm-2.55-5.4c2.85,0,2.55-10.2,0-10.2S4.56,21.18,7.41,21.18Z"/><path class="cls-1" d="M26.85,16.5c.87-3.21.36-5.22-.84-5.31C24.15,11,24,12.6,24,16v4.2c0,2.25.12,3,1.14,3h.39V24H16.86v-.81h.39c1,0,1.14-.78,1.14-3V13.92c0-2.25-.09-3-1.14-3h-.39v-.81H24v.45a10.8,10.8,0,0,1,3.21-.42c1.83,0,3.12.36,4,1.17a4.54,4.54,0,0,1,1,2.55Z"/><path class="cls-1" d="M50,23.19V24H44.13a1.31,1.31,0,0,1-1.23-1v-.39A11.38,11.38,0,0,1,38,24c-4.11,0-5.85-3.21-4.5-5.7,1.65-3.15,9.06-3.33,9-6.12a1.85,1.85,0,0,0-2-1.38c-2.79-.09-5.16,3.33-4.86,5l-.12-.18-1.89-3.06c2-2.55,4.41-2.58,6.66-2.64a13.6,13.6,0,0,1,6,1c1.89,1,2.07,3,2,6.18v3.12c0,2.25.12,3,1.14,3ZM42.9,17c0-1,0-1.95,0-2.73-.63.54-1.44,1-2.16,1.74-3,3-1.47,7.38,2.19,5.31Z"/><path class="cls-1" d="M67.17,17c0,3.84-2.55,7-5.67,7a5.59,5.59,0,0,1-3.9-1.23v7.35a1.38,1.38,0,0,1-1.23,1H50.49v-.81h.39c1,0,1.14-.78,1.14-3V13.92c0-2.25-.09-3-1.14-3h-.39v-.81H57.6v1.17a5,5,0,0,1,3.9-1.17C64.65,10.29,67.17,13.2,67.17,17Zm-5.55,0c0-3.12-.81-5.67-1.83-5.67s-2.13,1-2.19,5.07V17c.06,4.59,1.17,5.67,2.19,5.67S61.62,20.16,61.62,17Z"/><path class="cls-1" d="M87.48,23.19V24H79.14v-.81h.42c1,0,1.14-.78,1.14-3V17.4c0-5.25-.63-6.15-2.16-6.24-2.61-.15-3.27,1.92-3.27,6.39v2.61c0,2.25.12,3,1.14,3h.39V24H68.16v-.81h.39c1,0,1.14-.78,1.14-3V6.84c0-2.25-.09-3-1.14-3h-.39V3h7.11v7.53a16.12,16.12,0,0,1,3.93-.42c5.25.06,6.78,1.71,6.75,7.29v2.76c0,2.25.12,3,1.14,3Z"/><path class="cls-1" d="M97.14,23.19V24H88.5v-.81h.39c1,0,1.14-.78,1.14-3V13.92c0-2.25-.09-3-1.14-3H88.5v-.81h7.11V20.16c0,2.25.12,3,1.14,3ZM89.46,6.54a3.41,3.41,0,0,1,6.75,0,3.41,3.41,0,0,1-6.75,0Z"/><path class="cls-1" d="M111.63,22.8A7.9,7.9,0,0,1,106.8,24c-2,0-5.94,0-8.07-1.41l1-3.66a8.38,8.38,0,0,0,5.64,4c2.73.39,3.6-.66,2.67-1.77-1.29-1.53-5-2.1-6.9-3.12-2.16-1.11-3.09-3.06-2.28-5.13s3.78-2.79,6.75-2.76a10.26,10.26,0,0,1,6.24,1.83l-1.62,1.74c-.75-1.35-3.21-2.85-5.07-2.28-1.53.42-2.61,2.16.27,3.27,2.07.78,5.13,1.56,6.66,3.15A3.47,3.47,0,0,1,111.63,22.8Z"/><path class="cls-1" d="M140.49,23.19V24h-8.34v-.81h.39c1,0,1.14-.78,1.14-3V12.93c0-.84-.48-1.8-1.38-1.83h-.42a1.84,1.84,0,0,0-1.83,1.83V16a10.59,10.59,0,0,1,0,1.38v2.76c0,2.25.12,3,1.14,3h.42V24h-8.34v-.81h.39c1,0,1.14-.78,1.14-3V12.93c0-.84-.48-1.8-1.38-1.83H123a1.81,1.81,0,0,0-1.8,1.83v7.23c0,2.25.12,3,1.14,3h.39V24h-8.64v-.81h.39c1,0,1.14-.78,1.14-3V13.92c0-2.25-.09-3-1.14-3h-.39v-.81h7.11v.57a5,5,0,0,1,2.58-.6c2.79,0,4.53.12,5.43,1.35a4.09,4.09,0,0,1,3.45-1.35c3.42,0,5.31.18,5.94,2.4a21.32,21.32,0,0,1,.33,4.95v2.76c0,2.25.12,3,1.14,3Z"/><path class="cls-1" d="M147,17.58c0,1.71-.33,6,2.73,5.79,2.49-.15,3.48-1.53,3.36-4.77l2.46,1.83a4,4,0,0,1-2,2.61,5.07,5.07,0,0,1-1.77.69,8.8,8.8,0,0,1-2.28.27H149a10.2,10.2,0,0,1-4.86-.87c-2-1.11-2.61-3.3-2.55-6.09.09-4.32,1.2-7,7.41-7,3.87,0,5.67.81,6.57,3.12a12.15,12.15,0,0,1,.45,4.38Zm0-.81h6c0-.21,0-.39,0-.6-.12-1.92-.51-5.43-3.12-5.34C147.6,10.92,146.94,12.84,147,16.77Z"/><path class="cls-1" d="M54.67,59.19V60h-5.9a1.31,1.31,0,0,1-1.2-1v-.42a4.3,4.3,0,0,1-1.32.9,6.85,6.85,0,0,1-2.76.48c-4.47,0-5.67-3.12-5.67-7s1.74-7,5.67-7c1.83,0,3.15.27,4.08,1.11V42.84c0-2.25-.12-3-1.14-3H46V39h7.11V56.16c0,2.25.12,3,1.13,3ZM47.39,53c.06-4.59-1.17-5.67-2.19-5.67S43.37,49.92,43.37,53s.84,5.67,1.83,5.67S47.33,57.63,47.39,53Z"/><path class="cls-1" d="M61.22,53.58c0,1.71-.33,6,2.73,5.79,2.49-.15,3.47-1.53,3.36-4.77l2.46,1.83a4,4,0,0,1-2,2.61,5.21,5.21,0,0,1-1.78.69,8.67,8.67,0,0,1-2.27.27h-.51a10.18,10.18,0,0,1-4.86-.87c-2-1.11-2.61-3.3-2.55-6.09.09-4.32,1.2-7,7.41-7,3.86,0,5.66.81,6.57,3.12a12.38,12.38,0,0,1,.45,4.38Zm0-.81h6c0-.21,0-.39,0-.6-.12-1.92-.51-5.43-3.12-5.34C61.82,46.92,61.16,48.84,61.25,52.77Z"/><path class="cls-1" d="M83.59,54.6l2.46,1.83a4,4,0,0,1-2,2.61,5.07,5.07,0,0,1-1.77.69,8.8,8.8,0,0,1-2.28.27h-.51a10.26,10.26,0,0,1-4.86-.87c-2-1.11-2.6-3.3-2.55-6.09.09-4.32,1.69-7,7.41-7a9.22,9.22,0,0,1,.93,0c2.79.12,4.68,1.08,5.64,2.85l-2.55,2.58c-.27-4.32-4.23-6.3-5.37-3.15-.9,2.46-1,7.38,0,9.63a2,2,0,0,0,2,1.35C82.36,59.25,83.38,57.33,83.59,54.6Z"/><path class="cls-1" d="M102.43,53c0,3.84-2.19,7-7.38,7s-7.41-3.12-7.41-7,1.89-7,7.41-7S102.43,49.2,102.43,53Zm-7.38-6.15c-2.55,0-2.85,12.3,0,12.3S97.6,46.89,95.05,46.89Z"/><path class="cls-1" d="M113.5,52.5c.88-3.21.36-5.22-.83-5.31-1.87-.15-2,1.41-2,4.77v4.2c0,2.25.13,3,1.14,3h.39V60h-8.64v-.81h.4c1,0,1.13-.78,1.13-3V49.92c0-2.25-.08-3-1.13-3h-.4v-.81h7.11v.45a10.8,10.8,0,0,1,3.21-.42c1.83,0,3.12.36,4,1.17a4.54,4.54,0,0,1,1,2.55Z"/><path class="cls-2" d="M17.36,25.08A5.29,5.29,0,0,1,14,27.84a15.73,15.73,0,0,1-7.74.42,7.66,7.66,0,0,1-2.85-1.11A2.7,2.7,0,0,1,2.12,25,5,5,0,0,1,3,22.41c-1.38-1.44-.45-3.93.63-5.28A5.63,5.63,0,0,1,2,13.05c0-3.3,1.89-6,7.41-6,2.64,0,4.44.6,5.61,1.62a1.83,1.83,0,0,0-.84-1.62h3.54l-1.56,3.06a6.27,6.27,0,0,1,.63,2.91c0,3.3-2.19,6-7.38,6a9.5,9.5,0,0,1-4.62-1,1.71,1.71,0,0,0-.39,1.41c.48,1.17,4.65.51,5.7.39,2-.24,3.87-.51,5.73.57A3.52,3.52,0,0,1,17.36,25.08ZM12,23.58c-1.65.21-5,.54-7.29-.18-1,1.62-.84,3.45,1.8,4A14.5,14.5,0,0,0,13.64,27C16.82,25.89,15.65,23.1,12,23.58Zm-2.55-5.4C12.26,18.18,12,8,9.41,8S6.56,18.18,9.41,18.18Z"/><path class="cls-2" d="M28.85,13.5c.87-3.21.36-5.22-.84-5.31C26.15,8,26,9.6,26,13v4.2c0,2.25.12,3,1.14,3h.39V21H18.86v-.81h.39c1,0,1.14-.78,1.14-3V10.92c0-2.25-.09-3-1.14-3h-.39V7.08H26v.45a10.8,10.8,0,0,1,3.21-.42c1.83,0,3.12.36,4,1.17a4.54,4.54,0,0,1,1,2.55Z"/><path class="cls-2" d="M52,20.19V21H46.13a1.31,1.31,0,0,1-1.23-1v-.39A11.38,11.38,0,0,1,40,21c-4.11,0-5.85-3.21-4.5-5.7,1.65-3.15,9.06-3.33,9-6.12a1.85,1.85,0,0,0-2-1.38c-2.79-.09-5.16,3.33-4.86,5l-.12-.18L35.75,9.54C37.76,7,40.16,7,42.41,6.9a13.6,13.6,0,0,1,6,1c1.89,1,2.07,3,2,6.18v3.12c0,2.25.12,3,1.14,3ZM44.9,14c0-1,0-1.95,0-2.73-.63.54-1.44,1-2.16,1.74-3,3-1.47,7.38,2.19,5.31Z"/><path class="cls-2" d="M69.17,14c0,3.84-2.55,7-5.67,7a5.59,5.59,0,0,1-3.9-1.23v7.35a1.38,1.38,0,0,1-1.23,1H52.49v-.81h.39c1,0,1.14-.78,1.14-3V10.92c0-2.25-.09-3-1.14-3h-.39V7.08H59.6V8.25a5,5,0,0,1,3.9-1.17C66.65,7.29,69.17,10.2,69.17,14Zm-5.55,0c0-3.12-.81-5.67-1.83-5.67s-2.13,1-2.19,5.07V14c.06,4.59,1.17,5.67,2.19,5.67S63.62,17.16,63.62,14Z"/><path class="cls-2" d="M89.48,20.19V21H81.14v-.81h.42c1,0,1.14-.78,1.14-3V14.4c0-5.25-.63-6.15-2.16-6.24-2.61-.15-3.27,1.92-3.27,6.39v2.61c0,2.25.12,3,1.14,3h.39V21H70.16v-.81h.39c1,0,1.14-.78,1.14-3V3.84c0-2.25-.09-3-1.14-3h-.39V0h7.11V7.53a16.12,16.12,0,0,1,3.93-.42C86.45,7.17,88,8.82,88,14.4v2.76c0,2.25.12,3,1.14,3Z"/><path class="cls-2" d="M99.14,20.19V21H90.5v-.81h.39c1,0,1.14-.78,1.14-3V10.92c0-2.25-.09-3-1.14-3H90.5V7.08h7.11V17.16c0,2.25.12,3,1.14,3ZM91.46,3.54a3.41,3.41,0,0,1,6.75,0,3.41,3.41,0,0,1-6.75,0Z"/><path class="cls-2" d="M113.63,19.8A7.9,7.9,0,0,1,108.8,21c-2,0-5.94,0-8.07-1.41l1-3.66a8.38,8.38,0,0,0,5.64,4c2.73.39,3.6-.66,2.67-1.77-1.29-1.53-5-2.1-6.9-3.12-2.16-1.11-3.09-3.06-2.28-5.13s3.78-2.79,6.75-2.76a10.26,10.26,0,0,1,6.24,1.83l-1.62,1.74C111.5,9.3,109,7.8,107.18,8.37c-1.53.42-2.61,2.16.27,3.27,2.07.78,5.13,1.56,6.66,3.15A3.47,3.47,0,0,1,113.63,19.8Z"/><path class="cls-2" d="M142.49,20.19V21h-8.34v-.81h.39c1,0,1.14-.78,1.14-3V9.93c0-.84-.48-1.8-1.38-1.83h-.42a1.84,1.84,0,0,0-1.83,1.83V13a10.59,10.59,0,0,1,0,1.38v2.76c0,2.25.12,3,1.14,3h.42V21h-8.34v-.81h.39c1,0,1.14-.78,1.14-3V9.93c0-.84-.48-1.8-1.38-1.83H125a1.81,1.81,0,0,0-1.8,1.83v7.23c0,2.25.12,3,1.14,3h.39V21h-8.64v-.81h.39c1,0,1.14-.78,1.14-3V10.92c0-2.25-.09-3-1.14-3h-.39V7.08h7.11v.57a5,5,0,0,1,2.58-.6c2.79,0,4.53.12,5.43,1.35a4.09,4.09,0,0,1,3.45-1.35c3.42,0,5.31.18,5.94,2.4a21.32,21.32,0,0,1,.33,5v2.76c0,2.25.12,3,1.14,3Z"/><path class="cls-2" d="M149,14.58c0,1.71-.33,6,2.73,5.79,2.49-.15,3.48-1.53,3.36-4.77l2.46,1.83a4,4,0,0,1-2,2.61,5.07,5.07,0,0,1-1.77.69,8.8,8.8,0,0,1-2.28.27H151a10.2,10.2,0,0,1-4.86-.87c-2-1.11-2.61-3.3-2.55-6.09.09-4.32,1.2-7,7.41-7,3.87,0,5.67.81,6.57,3.12a12.15,12.15,0,0,1,.45,4.38Zm0-.81h6c0-.21,0-.39,0-.6-.12-1.92-.51-5.43-3.12-5.34C149.6,7.92,148.94,9.84,149,13.77Z"/><path class="cls-2" d="M56.67,56.19V57h-5.9a1.31,1.31,0,0,1-1.2-1v-.42a4.3,4.3,0,0,1-1.32.9,6.85,6.85,0,0,1-2.76.48c-4.47,0-5.67-3.12-5.67-7s1.74-7,5.67-7c1.83,0,3.15.27,4.08,1.11V39.84c0-2.25-.12-3-1.14-3H48V36h7.11V53.16c0,2.25.12,3,1.13,3ZM49.39,50c.06-4.59-1.17-5.67-2.19-5.67S45.37,46.92,45.37,50s.84,5.67,1.83,5.67S49.33,54.63,49.39,50Z"/><path class="cls-2" d="M63.22,50.58c0,1.71-.33,6,2.73,5.79,2.49-.15,3.47-1.53,3.36-4.77l2.46,1.83a4,4,0,0,1-2,2.61,5.21,5.21,0,0,1-1.78.69,8.67,8.67,0,0,1-2.27.27h-.51a10.18,10.18,0,0,1-4.86-.87c-2-1.11-2.61-3.3-2.55-6.09.09-4.32,1.2-7,7.41-7,3.86,0,5.66.81,6.57,3.12a12.38,12.38,0,0,1,.45,4.38Zm0-.81h6c0-.21,0-.39,0-.6-.12-1.92-.51-5.43-3.12-5.34C63.82,43.92,63.16,45.84,63.25,49.77Z"/><path class="cls-2" d="M85.59,51.6l2.46,1.83a4,4,0,0,1-2,2.61,5.07,5.07,0,0,1-1.77.69,8.8,8.8,0,0,1-2.28.27h-.51a10.26,10.26,0,0,1-4.86-.87c-2-1.11-2.6-3.3-2.55-6.09.09-4.32,1.69-7,7.41-7a9.22,9.22,0,0,1,.93,0c2.79.12,4.68,1.08,5.64,2.85l-2.55,2.58c-.27-4.32-4.23-6.3-5.37-3.15-.9,2.46-1,7.38,0,9.63a2,2,0,0,0,2,1.35C84.36,56.25,85.38,54.33,85.59,51.6Z"/><path class="cls-2" d="M104.43,50c0,3.84-2.19,7-7.38,7s-7.41-3.12-7.41-7,1.89-7,7.41-7S104.43,46.2,104.43,50Zm-7.38-6.15c-2.55,0-2.85,12.3,0,12.3S99.6,43.89,97.05,43.89Z"/><path class="cls-2" d="M115.5,49.5c.88-3.21.36-5.22-.83-5.31-1.87-.15-2,1.41-2,4.77v4.2c0,2.25.13,3,1.14,3h.39V57h-8.64v-.81h.4c1,0,1.13-.78,1.13-3V46.92c0-2.25-.08-3-1.13-3h-.4v-.81h7.11v.45a10.8,10.8,0,0,1,3.21-.42c1.83,0,3.12.36,4,1.17a4.54,4.54,0,0,1,1,2.55Z"/></g></g></svg>