<svg xmlns="http://www.w3.org/2000/svg" viewBox="0 0 177.27 72.46"><defs><style>.cls-1,.cls-2{fill:#79797c;}.cls-2,.cls-8{font-size:30px;font-family:MegantsRegular, Megants;}.cls-3{letter-spacing:0em;}.cls-4{letter-spacing:-0.01em;}.cls-5{letter-spacing:-0.01em;}.cls-6{letter-spacing:-0.01em;}.cls-7{letter-spacing:-0.01em;}.cls-8{fill:#1e1e1d;}</style></defs><title>Fichier 16graphismedecor</title><g id="Calque_2" data-name="Calque 2"><g id="Calque_1-2" data-name="Calque 1"><path class="cls-1" d="M75.36,43.9l-5.08,5.5H67.65l3.49-5.5Z"/><path d="M77.36,40.9l-5.08,5.5H69.65l3.49-5.5Z"/><text class="cls-2" transform="translate(6.01 28.5)">g<tspan class="cls-3" x="17.25" y="0">r</tspan><tspan class="cls-4" x="33.3" y="0">a</tspan><tspan class="cls-5" x="51" y="0">p</tspan><tspan x="68.67" y="0">hi</tspan><tspan class="cls-3" x="98.64" y="0">s</tspan><tspan class="cls-6" x="114.48" y="0">m</tspan><tspan x="141.66" y="0">e </tspan><tspan class="cls-6" x="37.88" y="36">d</tspan><tspan x="55.88" y="36">éc</tspan><tspan class="cls-7" x="87.79" y="36">o</tspan><tspan x="103.91" y="36">r</tspan></text><text class="cls-8" transform="translate(8.01 25.5)">g<tspan class="cls-3" x="17.25" y="0">r</tspan><tspan class="cls-4" x="33.3" y="0">a</tspan><tspan class="cls-5" x="51" y="0">p</tspan><tspan x="68.67" y="0">hi</tspan><tspan class="cls-3" x="98.64" y="0">s</tspan><tspan class="cls-6" x="114.48" y="0">m</tspan><tspan x="141.66" y="0">e </tspan><tspan class="cls-6" x="37.88" y="36">d</tspan><tspan x="55.88" y="36">éc</tspan><tspan class="cls-7" x="87.79" y="36">o</tspan><tspan x="103.91" y="36">r</tspan></text></g></g></svg>