<svg xmlns="http://www.w3.org/2000/svg" viewBox="0 0 346.31 77.06"><defs><style>.cls-1{fill:#2d2929;}.cls-2{fill:#fff;}</style></defs><title>Fichier 12photographiemobilebelvina</title><g id="Calque_2" data-name="Calque 2"><g id="Calque_1-2" data-name="Calque 1"><path class="cls-1" d="M3,23H13.32c7.2,0,14.34,5.4,14.34,13.38,0,7.5-4.5,12.12-11.34,12.12H10.2V65H3Zm7.2,3.6V44.36l4.56.3c4,0,5.94-1.8,5.94-6.24,0-6.66-4-11.82-9.18-11.82Z"/><path class="cls-1" d="M33.06,23h6.6V35.78a19.16,19.16,0,0,0-3.54,6.6l1.5.84c2.22-4.62,5.16-8.82,10.86-8.82S58,38.36,58,44.66c0,4.74-2.16,8.64-2.16,13.14A13.34,13.34,0,0,0,58,65H51.6a12,12,0,0,1-2.16-6.78c0-4.2,2.16-8,2.16-12.36,0-3.78-1.8-6-5.34-6-2.82,0-4.74,1.44-6.6,3.48V65h-6.6Z"/><path class="cls-1" d="M78.36,34.4c8.34,0,14.28,6.48,14.28,15.6S86.7,65.6,78.36,65.6,64,59.06,64,50,70,34.4,78.36,34.4Zm8.58,19.74c0-8.52-5.34-16.08-11.46-16.08-3.9,0-5.82,2.7-5.82,7.8,0,8.46,5.46,16.08,11.58,16.08C85.08,61.94,86.94,59.24,86.94,54.14Z"/><path class="cls-1" d="M96.54,35c4.5-1.26,6.12-2.64,7.5-6.18h3.42v3a8,8,0,0,1-2.28,5.4l.06.06a8.65,8.65,0,0,1,2.22-1.56,8.46,8.46,0,0,1,3.18-.72h4.08v2.4h-7.26V54.14c0,4.44,1.08,6,3.78,6,2.22,0,4.14-1.08,6.36-3.48l1.56.78c-2.94,6-5.52,8.16-9.72,8.16-5.52,0-8.4-3.54-8.4-10.26V37.4h-4.5Z"/><path class="cls-1" d="M136.2,34.4c8.34,0,14.28,6.48,14.28,15.6s-5.94,15.6-14.28,15.6S121.86,59.06,121.86,50,127.86,34.4,136.2,34.4Zm8.58,19.74c0-8.52-5.34-16.08-11.46-16.08-3.9,0-5.82,2.7-5.82,7.8,0,8.46,5.46,16.08,11.58,16.08C142.92,61.94,144.78,59.24,144.78,54.14Z"/><path class="cls-1" d="M169.62,34.4a14,14,0,0,1,7.26,1.92c-.66-2.76,0-5.1,3.54-5.1,1.26,0,1.56.36,2.82.36A12.09,12.09,0,0,0,185,31.4l1,5.16a5.15,5.15,0,0,1-2.4.54c-2.46,0-4.2-.3-4.2,1.2A16.06,16.06,0,0,1,183.9,50c0,9.12-5.94,15.6-14.28,15.6,0,0-9.6,1.2-9.6,4.44,0,1.44,2.52,2.22,6.6,2.22,8.16,0,14-6.18,16.56-6.18.36,0,.6.12.6.42l.48,7.56c-3.84,0-9.3,3-15.54,3-6.54,0-11.1-3.3-11.1-7.08,0-2.7,2.28-4.62,6.12-5.58-5.16-2.34-8.46-7.68-8.46-14.4C155.28,40.94,161.28,34.4,169.62,34.4Zm2.88,27.54c3.84,0,5.7-2.7,5.7-7.8,0-8.52-5.34-16.08-11.46-16.08-3.9,0-5.82,2.7-5.82,7.8C160.92,54.32,166.38,61.94,172.5,61.94Z"/><path class="cls-1" d="M193.2,35h6.6v.78a19.16,19.16,0,0,0-3.54,6.6l1.5.84c.78-1.68,1.44-3.12,2-4.2,2-3.72,3.54-4.62,6.42-4.62,3.66,0,5.58,2,5.58,4.32,0,2.76-2.88,4.5-2,6.36l-.36,1-4.86,1a5.08,5.08,0,0,1-.54-2.34c0-2.76,1.92-4.92.12-4.92-1.38,0-2.7,1.32-4.32,3.48V65h-6.6Z"/><path class="cls-1" d="M231.06,43.64c2.16-.9,3.3-2,3.3-3.42S233.16,38,231.6,38a6.06,6.06,0,0,0-2.52.66l-10.86,5.46a3.41,3.41,0,0,1-1.32.42c-.36,0-.6-.12-.6-.42l-.48-6.78c3.84,0,7.2-3,12.06-3,5.34,0,9.78,3.6,9.78,9.3V65h-6.6v-.78a19.16,19.16,0,0,0,3.54-6.6l-1.5-.84c-.72,1.5-1.38,2.76-2,3.84-2.1,3.54-4.08,5-7.86,5-5,0-9.3-2.64-9.3-7.74C213.9,51.8,219.9,48.2,231.06,43.64Zm-5.4,16.5c2.82,0,3.54-1.44,5.4-3.48V46c-7.14,4.14-10.74,7-10.74,10C220.32,58.4,222.78,60.14,225.66,60.14Z"/><path class="cls-1" d="M244.86,35h6.6v.78c-1.5,1.74-3.18,3.12-4.08,5.82l1.5.84c2.88-5.88,6.42-8,10.62-8,7.32,0,12.78,6.54,12.78,15.6s-5.4,15.6-13.08,15.6a11.5,11.5,0,0,1-8.34-3.42V77.06h-6Zm6,18.54c2,4.92,5.82,8.4,10.08,8.4,3.78,0,5.7-2.7,5.7-7.8,0-7.8-3.9-15.42-9.42-15.42a6.82,6.82,0,0,0-6.36,5.4Z"/><path class="cls-1" d="M278.28,23h6.6V35.78a19.16,19.16,0,0,0-3.54,6.6l1.5.84c2.22-4.62,5.16-8.82,10.86-8.82s9.54,4,9.54,10.26c0,4.74-2.16,8.64-2.16,13.14a13.34,13.34,0,0,0,2.16,7.2h-6.42a12,12,0,0,1-2.16-6.78c0-4.2,2.16-8,2.16-12.36,0-3.78-1.8-6-5.34-6-2.82,0-4.74,1.44-6.6,3.48V65h-6.6Z"/><path class="cls-1" d="M313.38,23.36a3.86,3.86,0,0,1,4.08,4.14,4.11,4.11,0,0,1-8.22,0A3.87,3.87,0,0,1,313.38,23.36ZM310.32,35h6.6V65h-6.6Z"/><path class="cls-1" d="M322.26,50c0-9.06,6-15.6,13.25-15.6,6.42,0,10.2,5,10.2,12.24V49H328c.77,6.66,4.44,11.1,9.47,11.1a9.81,9.81,0,0,0,7.26-3.48l1.56.78c-2.94,6-6.12,8.16-10.68,8.16C327.66,65.6,322.26,59.06,322.26,50Zm10.55-11.94c-4.73,0-4.91,5-4.91,8.58h11.75C339.65,41.54,336.89,38.06,332.81,38.06Z"/><path class="cls-2" d="M0,0H10.32c7.2,0,14.34,5.4,14.34,13.38,0,7.5-4.5,12.12-11.34,12.12H7.2V42H0ZM7.2,3.6V21.36l4.56.3c4,0,5.94-1.8,5.94-6.24,0-6.66-4-11.82-9.18-11.82Z"/><path class="cls-2" d="M30.06,0h6.6V12.78a19.16,19.16,0,0,0-3.54,6.6l1.5.84c2.22-4.62,5.16-8.82,10.86-8.82S55,15.36,55,21.66c0,4.74-2.16,8.64-2.16,13.14A13.34,13.34,0,0,0,55,42H48.6a12,12,0,0,1-2.16-6.78c0-4.2,2.16-8,2.16-12.36,0-3.78-1.8-6-5.34-6-2.82,0-4.74,1.44-6.6,3.48V42h-6.6Z"/><path class="cls-2" d="M75.36,11.4c8.34,0,14.28,6.48,14.28,15.6S83.7,42.6,75.36,42.6,61,36.06,61,27,67,11.4,75.36,11.4Zm8.58,19.74c0-8.52-5.34-16.08-11.46-16.08-3.9,0-5.82,2.7-5.82,7.8,0,8.46,5.46,16.08,11.58,16.08C82.08,38.94,83.94,36.24,83.94,31.14Z"/><path class="cls-2" d="M93.54,12c4.5-1.26,6.12-2.64,7.5-6.18h3.42v3a8,8,0,0,1-2.28,5.4l.06.06a8.65,8.65,0,0,1,2.22-1.56,8.46,8.46,0,0,1,3.18-.72h4.08v2.4h-7.26V31.14c0,4.44,1.08,6,3.78,6,2.22,0,4.14-1.08,6.36-3.48l1.56.78c-2.94,6-5.52,8.16-9.72,8.16-5.52,0-8.4-3.54-8.4-10.26V14.4h-4.5Z"/><path class="cls-2" d="M133.2,11.4c8.34,0,14.28,6.48,14.28,15.6s-5.94,15.6-14.28,15.6S118.86,36.06,118.86,27,124.86,11.4,133.2,11.4Zm8.58,19.74c0-8.52-5.34-16.08-11.46-16.08-3.9,0-5.82,2.7-5.82,7.8,0,8.46,5.46,16.08,11.58,16.08C139.92,38.94,141.78,36.24,141.78,31.14Z"/><path class="cls-2" d="M166.62,11.4a14,14,0,0,1,7.26,1.92c-.66-2.76,0-5.1,3.54-5.1,1.26,0,1.56.36,2.82.36A12.09,12.09,0,0,0,182,8.4l1,5.16a5.15,5.15,0,0,1-2.4.54c-2.46,0-4.2-.3-4.2,1.2A16.06,16.06,0,0,1,180.9,27c0,9.12-5.94,15.6-14.28,15.6,0,0-9.6,1.2-9.6,4.44,0,1.44,2.52,2.22,6.6,2.22,8.16,0,14-6.18,16.56-6.18.36,0,.6.12.6.42l.48,7.56c-3.84,0-9.3,3-15.54,3-6.54,0-11.1-3.3-11.1-7.08,0-2.7,2.28-4.62,6.12-5.58-5.16-2.34-8.46-7.68-8.46-14.4C152.28,17.94,158.28,11.4,166.62,11.4Zm2.88,27.54c3.84,0,5.7-2.7,5.7-7.8,0-8.52-5.34-16.08-11.46-16.08-3.9,0-5.82,2.7-5.82,7.8C157.92,31.32,163.38,38.94,169.5,38.94Z"/><path class="cls-2" d="M190.2,12h6.6v.78a19.16,19.16,0,0,0-3.54,6.6l1.5.84c.78-1.68,1.44-3.12,2-4.2,2-3.72,3.54-4.62,6.42-4.62,3.66,0,5.58,2,5.58,4.32,0,2.76-2.88,4.5-2,6.36l-.36,1-4.86,1a5.08,5.08,0,0,1-.54-2.34c0-2.76,1.92-4.92.12-4.92-1.38,0-2.7,1.32-4.32,3.48V42h-6.6Z"/><path class="cls-2" d="M228.06,20.64c2.16-.9,3.3-2,3.3-3.42S230.16,15,228.6,15a6.06,6.06,0,0,0-2.52.66l-10.86,5.46a3.41,3.41,0,0,1-1.32.42c-.36,0-.6-.12-.6-.42l-.48-6.78c3.84,0,7.2-3,12.06-3,5.34,0,9.78,3.6,9.78,9.3V42h-6.6v-.78a19.16,19.16,0,0,0,3.54-6.6l-1.5-.84c-.72,1.5-1.38,2.76-2,3.84-2.1,3.54-4.08,5-7.86,5-5,0-9.3-2.64-9.3-7.74C210.9,28.8,216.9,25.2,228.06,20.64Zm-5.4,16.5c2.82,0,3.54-1.44,5.4-3.48V23c-7.14,4.14-10.74,7-10.74,10C217.32,35.4,219.78,37.14,222.66,37.14Z"/><path class="cls-2" d="M241.86,12h6.6v.78c-1.5,1.74-3.18,3.12-4.08,5.82l1.5.84c2.88-5.88,6.42-8,10.62-8,7.32,0,12.78,6.54,12.78,15.6s-5.4,15.6-13.08,15.6a11.5,11.5,0,0,1-8.34-3.42V54.06h-6Zm6,18.54c2,4.92,5.82,8.4,10.08,8.4,3.78,0,5.7-2.7,5.7-7.8,0-7.8-3.9-15.42-9.42-15.42a6.82,6.82,0,0,0-6.36,5.4Z"/><path class="cls-2" d="M275.28,0h6.6V12.78a19.16,19.16,0,0,0-3.54,6.6l1.5.84c2.22-4.62,5.16-8.82,10.86-8.82s9.54,4,9.54,10.26c0,4.74-2.16,8.64-2.16,13.14a13.34,13.34,0,0,0,2.16,7.2h-6.42a12,12,0,0,1-2.16-6.78c0-4.2,2.16-8,2.16-12.36,0-3.78-1.8-6-5.34-6-2.82,0-4.74,1.44-6.6,3.48V42h-6.6Z"/><path class="cls-2" d="M310.38.36a3.86,3.86,0,0,1,4.08,4.14,4.11,4.11,0,0,1-8.22,0A3.87,3.87,0,0,1,310.38.36ZM307.32,12h6.6V42h-6.6Z"/><path class="cls-2" d="M319.26,27c0-9.06,6-15.6,13.25-15.6,6.42,0,10.2,5,10.2,12.24V26H325c.77,6.66,4.44,11.1,9.47,11.1a9.81,9.81,0,0,0,7.26-3.48l1.56.78c-2.94,6-6.12,8.16-10.68,8.16C324.66,42.6,319.26,36.06,319.26,27Zm10.55-11.94c-4.73,0-4.91,5-4.91,8.58h11.75C336.65,18.54,333.89,15.06,329.81,15.06Z"/></g></g></svg>