<svg xmlns="http://www.w3.org/2000/svg" viewBox="0 0 416 285.36"><defs><style>.cls-1{fill:#2d2929;}.cls-2{fill:snow;}</style></defs><title>Fichier 10photographiebelvina</title><g id="Calque_2" data-name="Calque 2"><g id="Calque_1-2" data-name="Calque 1"><path class="cls-1" d="M6,43H26.65c14.42,0,28.71,10.81,28.71,26.78,0,15-9,24.26-22.7,24.26H20.41v33H6Zm14.41,7.21V85.75l9.13.6c8,0,11.89-3.6,11.89-12.49,0-13.33-8-23.65-18.38-23.65Z"/><path class="cls-1" d="M66.17,43H79.38V68.58a38.12,38.12,0,0,0-7.09,13.21l3,1.68C79.74,74.22,85.62,65.82,97,65.82c11.65,0,19.09,7.92,19.09,20.53,0,9.49-4.32,17.29-4.32,26.3a26.7,26.7,0,0,0,4.32,14.41H103.27A23.93,23.93,0,0,1,99,113.49c0-8.4,4.32-16,4.32-24.74,0-7.56-3.6-12-10.68-12-5.65,0-9.49,2.89-13.21,7v43.35H66.17Z"/><path class="cls-1" d="M156.84,65.82c16.69,0,28.58,13,28.58,31.22s-11.89,31.22-28.58,31.22-28.7-13.09-28.7-31.22S140.14,65.82,156.84,65.82ZM174,105.33c0-17.06-10.69-32.19-22.94-32.19-7.8,0-11.65,5.41-11.65,15.61,0,16.94,10.93,32.19,23.18,32.19C170.29,120.94,174,115.53,174,105.33Z"/><path class="cls-1" d="M193.23,67c9-2.52,12.25-5.29,15-12.37h6.84v6a16,16,0,0,1-4.56,10.81l.12.12a17.3,17.3,0,0,1,4.44-3.12A17,17,0,0,1,221.45,67h8.16v4.8H215.08v33.51c0,8.88,2.16,12,7.57,12,4.44,0,8.28-2.16,12.73-7l3.12,1.56c-5.89,12-11.05,16.33-19.45,16.33-11.05,0-16.82-7.08-16.82-20.53V71.82h-9Z"/><path class="cls-1" d="M272.61,65.82c16.69,0,28.58,13,28.58,31.22s-11.89,31.22-28.58,31.22-28.7-13.09-28.7-31.22S255.92,65.82,272.61,65.82Zm17.17,39.51c0-17.06-10.69-32.19-22.94-32.19-7.8,0-11.65,5.41-11.65,15.61,0,16.94,10.93,32.19,23.18,32.19C286.06,120.94,289.78,115.53,289.78,105.33Z"/><path class="cls-1" d="M361.47,96.11c-1.83,5.44-5.69,9.31-11.56,9.31s-10-4.62-16-4.62a10,10,0,0,0-4.71,1.43c-2.15,1.17-4.25-1.82-3.25-4.65,2.05-5.8,6.3-9.55,11-9.55,6.78,0,12.1,4.26,16.49,4.26a12.51,12.51,0,0,0,4.91-.85C360.48,90.57,362.38,93.41,361.47,96.11Z"/><path class="cls-1" d="M62.32,200a27.92,27.92,0,0,1,14.53,3.84c-1.32-5.52,0-10.21,7.09-10.21,2.52,0,3.12.72,5.64.72a24.43,24.43,0,0,0,3.49-.36l2,10.33a10.34,10.34,0,0,1-4.81,1.08c-4.92,0-8.4-.6-8.4,2.4,5.64,5.53,9,13.69,9,23.42,0,18.25-11.88,31.22-28.58,31.22,0,0-19.21,2.4-19.21,8.89,0,2.88,5,4.44,13.21,4.44,16.33,0,28.1-12.37,33.14-12.37.72,0,1.2.24,1.2.84l1,15.13c-7.68,0-18.61,6-31.1,6-13.09,0-22.21-6.61-22.21-14.17,0-5.4,4.56-9.25,12.24-11.17-10.32-4.68-16.93-15.37-16.93-28.82C33.62,213.07,45.63,200,62.32,200Zm5.77,55.12c7.68,0,11.41-5.41,11.41-15.61,0-17.06-10.69-32.19-22.94-32.19-7.81,0-11.65,5.41-11.65,15.61C44.91,239.85,55.84,255.1,68.09,255.1Z"/><path class="cls-1" d="M109.52,201.18h13.21v1.56A38.27,38.27,0,0,0,115.65,216l3,1.68c1.56-3.36,2.88-6.24,4.08-8.41,4-7.44,7.09-9.24,12.85-9.24,7.33,0,11.17,4.08,11.17,8.64,0,5.53-5.76,9-4.08,12.73l-.72,2-9.73,2.05a10.22,10.22,0,0,1-1.08-4.69c0-5.52,3.84-9.84.24-9.84-2.76,0-5.41,2.64-8.65,7v43.35H109.52Z"/><path class="cls-1" d="M185.3,218.47c4.32-1.8,6.61-4.08,6.61-6.84s-2.41-4.45-5.53-4.45a12.13,12.13,0,0,0-5,1.32L159.6,219.43a6.81,6.81,0,0,1-2.64.84c-.72,0-1.2-.24-1.2-.84l-1-13.57c7.68,0,14.41-6,24.14-6,10.68,0,19.57,7.2,19.57,18.61v42.75H185.3v-1.56a38.45,38.45,0,0,0,7.09-13.21l-3-1.68c-1.44,3-2.76,5.52-4.08,7.69-4.2,7.08-8.17,10-15.73,10-10,0-18.61-5.28-18.61-15.49C151,234.8,163,227.6,185.3,218.47Zm-10.81,33c5.65,0,7.09-2.88,10.81-7V223.15c-14.29,8.29-21.5,14-21.5,19.94C163.8,248,168.73,251.49,174.49,251.49Z"/><path class="cls-1" d="M212.92,201.18h13.21v1.56c-3,3.48-6.36,6.24-8.16,11.65l3,1.68C226.73,204.3,233.82,200,242.22,200c14.66,0,25.58,13.09,25.58,31.22s-10.8,31.22-26.18,31.22a23,23,0,0,1-16.69-6.84v29.78h-12Zm12,37.1c4,9.85,11.65,16.82,20.18,16.82,7.56,0,11.41-5.41,11.41-15.61,0-15.62-7.81-30.87-18.86-30.87-6.24,0-11.17,4.81-12.73,10.81Z"/><path class="cls-1" d="M279.82,177.16H293v25.58A38.12,38.12,0,0,0,285.94,216l3,1.68c4.45-9.25,10.33-17.65,21.74-17.65,11.65,0,19.09,7.92,19.09,20.53,0,9.49-4.32,17.29-4.32,26.3a26.7,26.7,0,0,0,4.32,14.41H316.92a23.91,23.91,0,0,1-4.32-13.57c0-8.4,4.32-16,4.32-24.74,0-7.56-3.6-12-10.69-12-5.64,0-9.48,2.88-13.2,7v43.35H279.82Z"/><path class="cls-1" d="M350.07,177.88c4.92,0,8.17,3.24,8.17,8.29s-3.25,8.16-8.17,8.16-8.29-3.24-8.29-8.16S345,177.88,350.07,177.88ZM344,201.18h13.21v60H344Z"/><path class="cls-1" d="M367.85,231.2c0-18.13,12-31.22,26.53-31.22,12.85,0,20.42,10.08,20.42,24.49v4.81H379.37c1.56,13.33,8.89,22.21,19,22.21,5,0,10.08-2.16,14.53-7l3.12,1.56c-5.88,12-12.25,16.33-21.38,16.33C378.65,262.42,367.85,249.33,367.85,231.2ZM389,207.3c-9.49,0-9.85,10.09-9.85,17.17h23.54C402.67,214.27,397.15,207.3,389,207.3Z"/><path class="cls-2" d="M0,0H20.65C35.07,0,49.36,10.81,49.36,26.78c0,15-9,24.26-22.7,24.26H14.41v33H0ZM14.41,7.21V42.75l9.13.6c8,0,11.89-3.6,11.89-12.49,0-13.33-8-23.65-18.38-23.65Z"/><path class="cls-2" d="M60.17,0H73.38V25.58a38.12,38.12,0,0,0-7.09,13.21l3,1.68C73.74,31.22,79.62,22.82,91,22.82c11.65,0,19.09,7.92,19.09,20.53,0,9.49-4.32,17.29-4.32,26.3a26.7,26.7,0,0,0,4.32,14.41H97.27A23.93,23.93,0,0,1,93,70.49c0-8.4,4.32-16,4.32-24.74,0-7.56-3.6-12-10.68-12-5.65,0-9.49,2.89-13.21,7V84.06H60.17Z"/><path class="cls-2" d="M150.84,22.82c16.69,0,28.58,13,28.58,31.22s-11.89,31.22-28.58,31.22S122.14,72.17,122.14,54,134.14,22.82,150.84,22.82ZM168,62.33c0-17.06-10.69-32.19-22.94-32.19-7.8,0-11.65,5.41-11.65,15.61,0,16.94,10.93,32.19,23.18,32.19C164.29,77.94,168,72.53,168,62.33Z"/><path class="cls-2" d="M187.23,24c9-2.52,12.25-5.29,15-12.37h6.84v6a16,16,0,0,1-4.56,10.81l.12.12a17.3,17.3,0,0,1,4.44-3.12A17,17,0,0,1,215.45,24h8.16v4.8H209.08V62.33c0,8.88,2.16,12,7.57,12,4.44,0,8.28-2.16,12.73-7l3.12,1.56c-5.89,12-11.05,16.33-19.45,16.33-11.05,0-16.82-7.08-16.82-20.53V28.82h-9Z"/><path class="cls-2" d="M266.61,22.82c16.69,0,28.58,13,28.58,31.22S283.3,85.26,266.61,85.26,237.91,72.17,237.91,54,249.92,22.82,266.61,22.82Zm17.17,39.51c0-17.06-10.69-32.19-22.94-32.19-7.8,0-11.65,5.41-11.65,15.61,0,16.94,10.93,32.19,23.18,32.19C280.06,77.94,283.78,72.53,283.78,62.33Z"/><path class="cls-2" d="M355.47,53.11c-1.83,5.44-5.69,9.31-11.56,9.31s-10-4.62-16-4.62a10,10,0,0,0-4.71,1.43c-2.15,1.17-4.25-1.82-3.25-4.65,2.05-5.8,6.3-9.55,11-9.55,6.78,0,12.1,4.26,16.49,4.26a12.51,12.51,0,0,0,4.91-.85C354.48,47.57,356.38,50.41,355.47,53.11Z"/><path class="cls-2" d="M56.32,157a27.92,27.92,0,0,1,14.53,3.84c-1.32-5.52,0-10.21,7.09-10.21,2.52,0,3.12.72,5.64.72a24.43,24.43,0,0,0,3.49-.36l2,10.33a10.34,10.34,0,0,1-4.81,1.08c-4.92,0-8.4-.6-8.4,2.4,5.64,5.53,9,13.69,9,23.42,0,18.25-11.88,31.22-28.58,31.22,0,0-19.21,2.4-19.21,8.89,0,2.88,5,4.44,13.21,4.44,16.33,0,28.1-12.37,33.14-12.37.72,0,1.2.24,1.2.84l1,15.13c-7.68,0-18.61,6-31.1,6-13.09,0-22.21-6.61-22.21-14.17,0-5.4,4.56-9.25,12.24-11.17-10.32-4.68-16.93-15.37-16.93-28.82C27.62,170.07,39.63,157,56.32,157Zm5.77,55.12c7.68,0,11.41-5.41,11.41-15.61,0-17.06-10.69-32.19-22.94-32.19-7.81,0-11.65,5.41-11.65,15.61C38.91,196.85,49.84,212.1,62.09,212.1Z"/><path class="cls-2" d="M103.52,158.18h13.21v1.56A38.27,38.27,0,0,0,109.65,173l3,1.68c1.56-3.36,2.88-6.24,4.08-8.41,4-7.44,7.09-9.24,12.85-9.24,7.33,0,11.17,4.08,11.17,8.64,0,5.53-5.76,9-4.08,12.73l-.72,2-9.73,2.05a10.22,10.22,0,0,1-1.08-4.69c0-5.52,3.84-9.84.24-9.84-2.76,0-5.41,2.64-8.65,7v43.35H103.52Z"/><path class="cls-2" d="M179.3,175.47c4.32-1.8,6.61-4.08,6.61-6.84s-2.41-4.45-5.53-4.45a12.13,12.13,0,0,0-5,1.32L153.6,176.43a6.81,6.81,0,0,1-2.64.84c-.72,0-1.2-.24-1.2-.84l-1-13.57c7.68,0,14.41-6,24.14-6,10.68,0,19.57,7.2,19.57,18.61v42.75H179.3v-1.56a38.45,38.45,0,0,0,7.09-13.21l-3-1.68c-1.44,3-2.76,5.52-4.08,7.69-4.2,7.08-8.17,10-15.73,10-10,0-18.61-5.28-18.61-15.49C145,191.8,157,184.6,179.3,175.47Zm-10.81,33c5.65,0,7.09-2.88,10.81-7V180.15c-14.29,8.29-21.5,14-21.5,19.94C157.8,205,162.73,208.49,168.49,208.49Z"/><path class="cls-2" d="M206.92,158.18h13.21v1.56c-3,3.48-6.36,6.24-8.16,11.65l3,1.68C220.73,161.3,227.82,157,236.22,157c14.66,0,25.58,13.09,25.58,31.22s-10.8,31.22-26.18,31.22a23,23,0,0,1-16.69-6.84v29.78h-12Zm12,37.1c4,9.85,11.65,16.82,20.18,16.82,7.56,0,11.41-5.41,11.41-15.61,0-15.62-7.81-30.87-18.86-30.87-6.24,0-11.17,4.81-12.73,10.81Z"/><path class="cls-2" d="M273.82,134.16H287v25.58A38.12,38.12,0,0,0,279.94,173l3,1.68c4.45-9.25,10.33-17.65,21.74-17.65,11.65,0,19.09,7.92,19.09,20.53,0,9.49-4.32,17.29-4.32,26.3a26.7,26.7,0,0,0,4.32,14.41H310.92a23.91,23.91,0,0,1-4.32-13.57c0-8.4,4.32-16,4.32-24.74,0-7.56-3.6-12-10.69-12-5.64,0-9.48,2.88-13.2,7v43.35H273.82Z"/><path class="cls-2" d="M344.07,134.88c4.92,0,8.17,3.24,8.17,8.29s-3.25,8.16-8.17,8.16-8.29-3.24-8.29-8.16S339,134.88,344.07,134.88ZM338,158.18h13.21v60H338Z"/><path class="cls-2" d="M361.85,188.2c0-18.13,12-31.22,26.53-31.22,12.85,0,20.42,10.08,20.42,24.49v4.81H373.37c1.56,13.33,8.89,22.21,19,22.21,5,0,10.08-2.16,14.53-7l3.12,1.56c-5.88,12-12.25,16.33-21.38,16.33C372.65,219.42,361.85,206.33,361.85,188.2ZM383,164.3c-9.49,0-9.85,10.09-9.85,17.17h23.54C396.67,171.27,391.15,164.3,383,164.3Z"/></g></g></svg>