<svg id="Calque_1" data-name="Calque 1" xmlns="http://www.w3.org/2000/svg" viewBox="0 0 141.46 214.15"><defs><style>.cls-1{fill:#f3e9d7;}</style></defs><title>pictodog</title><path class="cls-1" d="M218.33,356.72c1.67-25.27,3.56-53.67,5.44-82.07.22-3.32.35-6.65.67-10,.55-5.71,3.8-9.79,8.27-10.61,4.88-.88,8.6,1.29,11.36,6.94,6.49,13.3,13,26.6,19.26,40,1.53,3.28,3.27,4.72,7.08,4.64,12.65-.26,25.32-.23,38,0,3.57.06,5.29-1.23,6.76-4.35,6.22-13.25,12.67-26.4,19.07-39.56,3-6.23,6.42-8.48,11.38-7.72,4.61.71,7.63,4.4,8.12,11.1,2.83,38.68,7.43,77.3,5.71,116.18-1.43,32.34-15,57.86-43.72,74.31-5.41,3.1-10.85,6.15-16.12,9.46a19.18,19.18,0,0,1-23.12-2,25.43,25.43,0,0,0-6.55-4.23c-28.46-12.6-44.17-35.12-49.4-65.05C218.57,382.72,219.1,371.23,218.33,356.72Zm90,94.18c1.62-.71,3-1.17,4.28-1.89,20.69-11.8,33.61-29.79,37.32-52.88,2.62-16.3,1.72-33.17,2.17-49.79,0-1.27-1.38-2.91-2.55-3.82-11.67-9.15-23.38-18.25-35.22-27.17a11.47,11.47,0,0,0-6.28-2.16q-18.75-.3-37.49,0a10.59,10.59,0,0,0-5.86,1.92q-18,13.55-35.6,27.5a7.82,7.82,0,0,0-2.58,5.3c-.23,11-.39,22,0,33,.66,20.16,7.31,38.13,20.85,53.29A66.67,66.67,0,0,0,270.26,451c.88-5.37,1-9.24-4.05-12.87-8.49-6.1-12.49-15.39-13.8-25.69-.74-5.83,1.49-7.55,6.88-5.45,20,7.81,39.91,8,59.89-.07,5.23-2.1,7.67-.16,7,5.56-1.26,10.31-5.26,19.61-13.8,25.67C307.27,441.78,307.47,445.66,308.3,450.9Zm-29.79-30.7c-.09,1.63-.25,3.09-.25,4.54,0,9-.21,18,.22,27,.26,5.36,5.25,9.23,10.69,9.29,5.2.06,10.52-3.49,10.76-8.57.51-10.74.15-21.51.15-32.25Z" transform="translate(-218.33 -253.89)"/><path class="cls-1" d="M288.86,409.89c-2.75-1.38-6-2.23-8.14-4.27a46.09,46.09,0,0,1-8.58-10.95c-1.26-2.32-1.73-6.3-.56-8.44,2-3.7,32.67-2.64,35.17.11.78.86.94,2.5,1,3.79C308,397.07,296.1,409.22,288.86,409.89Z" transform="translate(-218.33 -253.89)"/><path class="cls-1" d="M329.88,339a14.72,14.72,0,1,1-14.65,14.57A14.67,14.67,0,0,1,329.88,339Zm7.41,14.9a7.48,7.48,0,0,0-7.12-7.56,7.37,7.37,0,1,0-.36,14.74A7.46,7.46,0,0,0,337.29,353.91Z" transform="translate(-218.33 -253.89)"/><path class="cls-1" d="M248.63,339a14.73,14.73,0,1,1-14.8,14.45A14.65,14.65,0,0,1,248.63,339ZM256,353.59a7.68,7.68,0,0,0-7.52-7.25,7.37,7.37,0,0,0,.27,14.74A7.61,7.61,0,0,0,256,353.59Z" transform="translate(-218.33 -253.89)"/><path class="cls-1" d="M293.06,442.33c0,2.32.5,4.78-.15,6.9-.5,1.64-2.42,2.84-3.71,4.24-1.22-1.29-3.37-2.5-3.5-3.89a76.65,76.65,0,0,1,0-14.37c.13-1.36,2.38-2.52,3.66-3.77,1.23,1.31,3.09,2.44,3.53,4C293.51,437.57,293.06,440,293.06,442.33Z" transform="translate(-218.33 -253.89)"/></svg>