<svg xmlns="http://www.w3.org/2000/svg" viewBox="0 0 46.95 71"><defs><style>.cls-1{fill:#597ef7;}</style></defs><title>Fichier 2</title><g id="Calque_2" data-name="Calque 2"><g id="Calque_1-2" data-name="Calque 1"><path class="cls-1" d="M0,34.15C.56,25.77,1.19,16.36,1.79,6.94c.07-1.09.13-2.18.23-3.31A3.71,3.71,0,0,1,4.77.12C6.4-.18,7.62.55,8.55,2.4c2.15,4.41,4.31,8.82,6.4,13.26a2.18,2.18,0,0,0,2.35,1.53c4.18-.1,8.39-.07,12.59,0a2.11,2.11,0,0,0,2.26-1.46C34.2,11.35,36.36,7,38.48,2.6c1-2,2.12-2.81,3.78-2.55s2.52,1.46,2.68,3.68c.93,12.83,2.45,25.62,1.89,38.51-.46,10.71-5,19.19-14.48,24.63-1.79,1-3.62,2-5.34,3.14a6.32,6.32,0,0,1-7.65-.66A9.13,9.13,0,0,0,17.2,68C7.76,63.78,2.55,56.33.83,46.38.07,42.77.27,39,0,34.15ZM29.83,65.37c.53-.23,1-.39,1.42-.63A24,24,0,0,0,43.62,47.21c.86-5.4.56-11,.72-16.5a2.09,2.09,0,0,0-.82-1.26q-5.82-4.53-11.67-9a4,4,0,0,0-2.09-.73q-6.21-.09-12.43,0a3.56,3.56,0,0,0-1.95.63q-6,4.49-11.8,9.12a2.74,2.74,0,0,0-.86,1.79c-.07,3.64-.13,7.29,0,10.93A27.06,27.06,0,0,0,9.64,59.84a21.79,21.79,0,0,0,7.59,5.57c.3-1.79.34-3-1.32-4.28-2.82-2-4.14-5.1-4.58-8.52-.23-1.92.5-2.48,2.29-1.82a25.91,25.91,0,0,0,19.85,0c1.73-.7,2.56-.07,2.32,1.85-.43,3.42-1.75,6.5-4.57,8.52-1.76,1.23-1.69,2.52-1.39,4.24ZM20,55.2c0,.53-.06,1-.06,1.49,0,3-.07,6,.06,9a3.46,3.46,0,0,0,3.55,3.08c1.72,0,3.48-1.16,3.58-2.85.16-3.54,0-7.12,0-10.67Z"/><path class="cls-1" d="M23.37,51.79a10,10,0,0,1-2.69-1.43,15.24,15.24,0,0,1-2.85-3.64,3.47,3.47,0,0,1-.2-2.79c.66-1.22,10.84-.86,11.67,0a2.26,2.26,0,0,1,.33,1.26C29.73,47.54,25.78,51.55,23.37,51.79Z"/><path class="cls-1" d="M37,28.29a4.89,4.89,0,1,1-4.88,4.9v-.06A4.88,4.88,0,0,1,37,28.29Zm2.45,4.94a2.5,2.5,0,0,0-2.35-2.52,2.39,2.39,0,0,0-2.49,2.38A2.43,2.43,0,0,0,37,35.58a2.45,2.45,0,0,0,2.45-2.35Z"/><path class="cls-1" d="M10,28.29a4.89,4.89,0,1,1-4.9,4.87v-.07A4.84,4.84,0,0,1,10,28.29Zm2.45,4.84A2.5,2.5,0,0,0,10,30.74a2.44,2.44,0,1,0,.1,4.87h0A2.54,2.54,0,0,0,12.49,33.13Z"/><path class="cls-1" d="M24.76,62.52a8.72,8.72,0,0,1,0,2.29c-.16.53-.79.93-1.22,1.39-.4-.43-1.13-.83-1.16-1.29a29.22,29.22,0,0,1,0-4.77c0-.47.79-.83,1.22-1.26.4.43,1,.79,1.16,1.32A9,9,0,0,1,24.76,62.52Z"/></g></g></svg>