<svg xmlns="http://www.w3.org/2000/svg" viewBox="0 0 35.48 48.63"><defs><style>.cls-1{fill:#79797c;}.cls-2{fill:#1e1e1d;}</style></defs><title>Fichier 4pictodogshadow</title><g id="Calque_2" data-name="Calque 2"><g id="Calque_1-2" data-name="Calque 1"><path class="cls-1" d="M0,23.65C.41,18,.88,11.59,1.31,5.21c.05-.74.1-1.49.17-2.25A2.57,2.57,0,0,1,3.5.58,2.49,2.49,0,0,1,6.28,2.13c1.58,3,3.16,6,4.7,9a1.6,1.6,0,0,0,1.72,1c3.07-.07,6.16-.05,9.25,0a1.56,1.56,0,0,0,1.66-1c1.51-3,3.09-5.93,4.65-8.9C29,.87,29.81.35,31,.53s1.85,1,2,2.5c.68,8.69,1.8,17.36,1.39,26.1-.34,7.26-3.65,13-10.64,16.7-1.31.69-2.65,1.37-3.92,2.13a5,5,0,0,1-5.62-.45,6.35,6.35,0,0,0-1.58-.94,18.67,18.67,0,0,1-12-14.63C.05,29.49.19,26.91,0,23.65ZM21.9,44.82c.39-.16.73-.27,1.05-.43,5-2.65,8.18-6.7,9.08-11.89.63-3.66.41-7.45.53-11.18,0-.3-.34-.66-.61-.86-2.84-2-5.69-4.09-8.56-6.11a3,3,0,0,0-1.54-.49q-4.56-.07-9.12,0a2.74,2.74,0,0,0-1.44.42q-4.38,3-8.66,6.18A1.8,1.8,0,0,0,2,21.68c-.05,2.47-.1,4.94,0,7.41a17.54,17.54,0,0,0,5.08,12,16,16,0,0,0,5.58,3.78c.21-1.22.24-2.07-1-2.9a7.86,7.86,0,0,1-3.36-5.77c-.17-1.31.37-1.69,1.68-1.24a20.52,20.52,0,0,0,14.58,0c1.27-.47,1.87,0,1.7,1.26a7.85,7.85,0,0,1-3.35,5.77c-1.29.83-1.25,1.71-1,2.88Zm-7.25-6.9c0,.36-.05.69-.05,1,0,2,0,4,.05,6.07a2.47,2.47,0,0,0,2.61,2.08,2.44,2.44,0,0,0,2.62-1.93c.13-2.4,0-4.83,0-7.23Z"/><path class="cls-1" d="M17.16,35.6a7.37,7.37,0,0,1-2-1,10.51,10.51,0,0,1-2.1-2.47A2.19,2.19,0,0,1,13,30.28c.48-.83,8-.58,8.56,0a1.43,1.43,0,0,1,.25.86C21.83,32.73,18.93,35.45,17.16,35.6Z"/><path class="cls-1" d="M27.16,19.68a3.46,3.46,0,0,1,3.6,3.3,3.45,3.45,0,0,1-3.58,3.32,3.46,3.46,0,0,1-3.6-3.3v0A3.46,3.46,0,0,1,27.16,19.68ZM29,23a1.75,1.75,0,0,0-1.73-1.7,1.66,1.66,0,1,0-.07,3.3A1.74,1.74,0,0,0,29,23Z"/><path class="cls-1" d="M7.37,19.68A3.46,3.46,0,0,1,11,23a3.47,3.47,0,0,1-3.6,3.3A3.47,3.47,0,0,1,3.77,23v-.05A3.43,3.43,0,0,1,7.37,19.68ZM9.18,23a1.79,1.79,0,0,0-1.83-1.62A1.69,1.69,0,0,0,5.6,23a1.72,1.72,0,0,0,1.82,1.62h0A1.81,1.81,0,0,0,9.18,23Z"/><path class="cls-2" d="M1,23.15c.41-5.68.88-12.06,1.31-18.44,0-.74.1-1.49.17-2.25A2.57,2.57,0,0,1,4.5.08,2.49,2.49,0,0,1,7.28,1.63c1.58,3,3.16,6,4.7,9a1.6,1.6,0,0,0,1.72,1c3.07-.07,6.16-.05,9.25,0a1.56,1.56,0,0,0,1.66-1c1.51-3,3.09-5.93,4.65-8.9C30,.37,30.81-.15,32,0s1.85,1,2,2.5c.68,8.69,1.8,17.36,1.39,26.1-.34,7.26-3.65,13-10.64,16.7-1.31.69-2.65,1.37-3.92,2.13A5,5,0,0,1,15.21,47a6.35,6.35,0,0,0-1.58-.94,18.67,18.67,0,0,1-12-14.63C1.05,29,1.19,26.41,1,23.15ZM22.9,44.32c.39-.16.73-.27,1.05-.43C29,41.24,32.13,37.19,33,32c.63-3.66.41-7.45.53-11.18,0-.3-.34-.66-.61-.86-2.84-2-5.69-4.09-8.56-6.11a3,3,0,0,0-1.54-.49q-4.56-.07-9.12,0a2.74,2.74,0,0,0-1.44.42q-4.38,3-8.66,6.18A1.8,1.8,0,0,0,3,21.18c0,2.47-.1,4.94,0,7.41a17.54,17.54,0,0,0,5.08,12,16,16,0,0,0,5.58,3.78c.21-1.22.24-2.07-1-2.9a7.86,7.86,0,0,1-3.36-5.77C9.15,34.36,9.69,34,11,34.43a20.52,20.52,0,0,0,14.58,0c1.27-.47,1.87,0,1.7,1.26a7.85,7.85,0,0,1-3.35,5.77c-1.29.83-1.25,1.71-1,2.88Zm-7.25-6.9c0,.36-.05.69-.05,1,0,2,0,4,.05,6.07a2.47,2.47,0,0,0,2.61,2.08,2.44,2.44,0,0,0,2.62-1.93c.13-2.4,0-4.83,0-7.23Z"/><path class="cls-2" d="M18.16,35.1a7.37,7.37,0,0,1-2-1,10.51,10.51,0,0,1-2.1-2.47A2.19,2.19,0,0,1,14,29.78c.48-.83,8-.58,8.56,0a1.43,1.43,0,0,1,.25.86C22.83,32.23,19.93,35,18.16,35.1Z"/><path class="cls-2" d="M28.16,19.18a3.46,3.46,0,0,1,3.6,3.3,3.6,3.6,0,0,1-7.18,0v0A3.46,3.46,0,0,1,28.16,19.18ZM30,22.52a1.75,1.75,0,0,0-1.73-1.7,1.66,1.66,0,1,0-.07,3.3,1.74,1.74,0,0,0,1.8-1.6Z"/><path class="cls-2" d="M8.37,19.18A3.46,3.46,0,0,1,12,22.5a3.47,3.47,0,0,1-3.6,3.3,3.47,3.47,0,0,1-3.58-3.32v-.05A3.43,3.43,0,0,1,8.37,19.18Zm1.81,3.28a1.79,1.79,0,0,0-1.83-1.62A1.69,1.69,0,0,0,6.6,22.52a1.72,1.72,0,0,0,1.82,1.62h0A1.81,1.81,0,0,0,10.18,22.46Z"/></g></g></svg>