<svg xmlns="http://www.w3.org/2000/svg" viewBox="0 0 283.34 33.75"><title>Fichier 2titregraphisme</title><g id="Calque_2" data-name="Calque 2"><g id="Calque_1-2" data-name="Calque 1"><path d="M31,16.61s-1.15,1.58-1.15,6.67V33.75H16.08c-3.79,0-9-.24-12.14-2.74-1.78-1.44-2.79-3.5-3.36-6.29A39.67,39.67,0,0,1,0,17C0,8,3.94.72,14.74.19c.43,0,.86,0,1.34,0,8.5,0,12.1,2,14.21,5.56l-5.62,5.81c1.11-4.17-1.53-9.41-5.9-10.22-2.83-.48-5.76,1-7.44,4.22C9.5,8.93,8.88,13.59,8.88,17c0,5,.34,15.45,8.11,15.5a8.61,8.61,0,0,0,4-.91V23.28c0-3.84-1.54-6.05-4.71-6.67Z"/><path d="M65.81,32.45l0,1.3H52l0-1.3h.67c1.63,0,1.29-1.25-.15-4.85L49.44,20H44.93V27.6c0,3.6.19,4.85,1.82,4.85h.63v1.3H33.55v-1.3h.63c1.63,0,1.82-1.25,1.82-4.85V6.29c0-3.6-.14-4.85-1.82-4.85h-.63V.15H56.93c3.41,0,6.24,2.3,6.24,5.76v7.82a6.34,6.34,0,0,1-4.9,6.15l3.12,7.72c1.44,3.6,2.16,4.85,3.8,4.85ZM54.29,6.1c0-2.83-2.3-4.66-5.19-4.66H44.93V18.72H49.1a5.19,5.19,0,0,0,5.19-5.18Z"/><path d="M99.17,32.45v1.3H85.35v-1.3h.33c1.06-.09,1.54-1.49.82-4.27l-1.64-5.43H73.2l-1.39,5.14c-.82,3-.34,4.47.77,4.56h1v1.3h-7.3v-1.3h1.1c1.68-.09,2.45-2,3.08-4.22L78.05.15h8.88l8.5,28.17v-.09c.62,2.21,1.39,4.13,3.07,4.22Zm-14.69-11L78.72,2.4,73.54,21.46Z"/><path d="M123.46.15c3.41,0,6.24,2.3,6.24,5.76v7.82A6.3,6.3,0,0,1,123.46,20h-12V27.6c0,3.6.19,4.85,1.82,4.85h.62v1.3H100.08v-1.3h.62c1.64,0,1.83-1.25,1.83-4.85V6.29c0-3.6-.15-4.85-1.83-4.85h-.62V.15ZM120.82,6.1c0-2.83-2.36-4.66-5.19-4.66h-4.17V18.72h4.17a5.23,5.23,0,0,0,5.19-5.18Z"/><path d="M163,6.29V27.6c0,3.6.19,4.85,1.82,4.85h.68v1.3H151.68v-1.3h.63c1.63,0,1.82-1.25,1.82-4.85v-10H143.38v10c0,3.6.19,4.85,1.82,4.85h.62v1.3H132v-1.3h.62c1.64,0,1.83-1.25,1.83-4.85V6.29c0-3.6-.15-4.85-1.83-4.85H132V.15h13.82V1.44h-.62c-1.63,0-1.82,1.25-1.82,4.85v10h10.75v-10c0-3.6-.19-4.85-1.82-4.85h-.63V.15h13.83V1.44h-.68C163.2,1.44,163,2.69,163,6.29Z"/><path d="M179.09,6.29V27.6c0,3.6.19,4.85,1.82,4.85h.63v1.3H167.71v-1.3h.62c1.68,0,1.83-1.25,1.83-4.85V6.29c0-3.6-.15-4.85-1.83-4.85h-.62V.15h13.83V1.44h-.63C179.28,1.44,179.09,2.69,179.09,6.29Z"/><path d="M209.81,30a14.46,14.46,0,0,1-9.51,3.74c-3.88.24-12.43-.62-15.93-3.46l2.4-6a13.78,13.78,0,0,0,15.36,7.88c3.41-.63,6.72-2.88,3.89-6-3.27-3.65-13.25-6-16.57-8.07-4.32-2.73-6.43-6.29-4.84-11.28C186.29,1.49,192.1,0,198,0c4.66.1,9.46,1.49,12.34,4.42l-2.6,3.12c-2.88-5.19-16.46-8.69-17.37-2.26C189.45,12,205.92,13,210.82,18.67A8.31,8.31,0,0,1,209.81,30Z"/><path d="M251.66,6.29V27.6c0,3.6.2,4.85,1.83,4.85h.62v1.3H240.29v-1.3h.62c1.63,0,1.83-1.25,1.83-4.85V3.6l-7.06,30.15H226.8L219.12,4.37V27.6c0,3.6,1.25,4.85,2.88,4.85h2.45v1.3H212.93v-1.3h1.34c1.63,0,3.55-1.25,3.55-4.85V6.29c0-3.6-1.92-4.85-3.55-4.85h-1.34V.15h14l8.11,31,7.25-31h11.85V1.44h-.62C251.86,1.44,251.66,2.69,251.66,6.29Z"/><path d="M283.34.15V11.91c-2.2-7.06-5.61-10.47-12.57-10.47h-3V16.27h3.12c3.84,0,6.05-1.48,6.68-4.7V22.32c-.63-3.21-2.84-4.7-6.68-4.7h-3.12V32.45h3c7,0,10.37-3.41,12.57-10.46V33.75h-27v-1.3H257c1.68,0,1.82-1.25,1.82-4.85V6.29c0-3.6-.14-4.85-1.82-4.85h-.62V.15Z"/></g></g></svg>