<svg xmlns="http://www.w3.org/2000/svg" viewBox="0 0 188.94 18.45"><defs><style>.cls-1{fill:#79797c;}.cls-2{fill:#1e1e1d;}</style></defs><title>Fichier 3titreaurelia</title><g id="Calque_2" data-name="Calque 2"><g id="Calque_1-2" data-name="Calque 1"><path class="cls-1" d="M13.72,17.91v.54H8v-.54H8.1c.44,0,.64-.62.34-1.78l-.68-2.26H2.9L2.32,16c-.34,1.24-.14,1.86.32,1.9H3v.54H0v-.54H.46c.7,0,1-.84,1.28-1.76L4.92,4.45h3.7l3.54,11.74v0c.26.92.58,1.72,1.28,1.76ZM7.6,13.33,5.2,5.39,3,13.33Z"/><path class="cls-1" d="M26.74,4.45V5h-.56c-.68,0-1.48.52-1.48,2v7.34c0,2-.62,4.1-3.44,4.1h-3c-3.14,0-4.1-1.84-4.1-4.1V7c0-1.5-.06-2-.76-2h-.26V4.45h5.76V5h-.26c-.68,0-.76.52-.76,2v7.42c-.12,3.16,1.76,3.52,3.26,3.46,2.16-.08,3-1.56,3-3.46V7c0-1.5-.52-2-1.2-2h-1V4.45Z"/><path class="cls-1" d="M40.66,17.91l0,.54H34.92l0-.54h.28c.68,0,.54-.52-.06-2l-1.28-3.16H32v3.16c0,1.5.08,2,.76,2H33v.54H27.22v-.54h.26c.68,0,.76-.52.76-2V7c0-1.5-.06-2-.76-2h-.26V4.45H37a2.44,2.44,0,0,1,2.6,2.4v3.26a2.64,2.64,0,0,1-2,2.56l1.3,3.22c.6,1.5.9,2,1.58,2Zm-4.8-11A2,2,0,0,0,33.7,5H32v7.2H33.7A2.16,2.16,0,0,0,35.86,10Z"/><path class="cls-1" d="M52.62,4.45v4.9C51.7,6.41,50.28,5,47.38,5H46.12v6.18h1.3c1.6,0,2.52-.62,2.78-2v4.48c-.26-1.34-1.18-2-2.78-2h-1.3v6.18h1.26c2.9,0,4.32-1.42,5.24-4.36v4.9H41.38v-.54h.26c.7,0,.76-.52.76-2V7c0-1.5-.06-2-.76-2h-.26V4.45Z"/><path class="cls-1" d="M65,13.55v4.9H54v-.54h.26c.68,0,.76-.52.76-2V7c0-1.5-.06-2-.76-2H54V4.45h5.76V5h-.26c-.68,0-.76.52-.76,2v10.9H59.8C62.7,17.91,64.12,16.49,65,13.55Z"/><path class="cls-1" d="M70.56,7v8.88c0,1.5.08,2,.76,2h.26v.54H65.82v-.54h.26c.7,0,.76-.52.76-2V7c0-1.5-.06-2-.76-2h-.26V4.45h5.76V5h-.26C70.64,5,70.56,5.51,70.56,7Z"/><path class="cls-1" d="M85.7,17.91v.54H79.94v-.54h.14c.44,0,.64-.62.34-1.78l-.68-2.26H74.88L74.3,16c-.34,1.24-.14,1.86.32,1.9H75v.54H72v-.54h.46c.7,0,1-.84,1.28-1.76L76.9,4.45h3.7l3.54,11.74v0c.26.92.58,1.72,1.28,1.76Zm-6.12-4.58-2.4-7.94L75,13.33Z"/><path class="cls-1" d="M104.84,4.45v4.9C103.92,6.41,102.5,5,99.6,5H98.34v6.18h1.3c1.6,0,2.52-.62,2.78-2v4.48c-.26-1.34-1.18-2-2.78-2h-1.3v4.16c0,1.5.08,2,.76,2h.26v.54H93.6v-.54h.26c.68,0,.76-.52.76-2V7c0-1.5-.08-2-.76-2H93.6V4.45Z"/><path class="cls-1" d="M119.74,11.45c0,3.86-2.06,7-7,7s-7-3.14-7-7,1.94-7,7-7S119.74,7.59,119.74,11.45Zm-3.7,0c0-3.56-1-6.42-3.3-6.46s-3.3,2.9-3.3,6.46.9,6.46,3.3,6.46S116,15,116,11.45Z"/><path class="cls-1" d="M134.24,4.45V5h-.56c-.68,0-1.48.52-1.48,2v7.34c0,2-.62,4.1-3.44,4.1h-3c-3.14,0-4.1-1.84-4.1-4.1V7c0-1.5-.06-2-.76-2h-.26V4.45h5.76V5h-.26c-.68,0-.76.52-.76,2v7.42c-.12,3.16,1.76,3.52,3.26,3.46,2.16-.08,3-1.56,3-3.46V7c0-1.5-.52-2-1.2-2h-1V4.45Z"/><path class="cls-1" d="M145,15.17l1.14,1.14c-1,1.34-2.52,2-4.92,2.14h-.4c-4.94,0-6.7-3.14-6.7-7s1.78-7,6.7-7c2.62,0,4.38.74,5.4,2.32L143.9,9.19c.72-2.74-1.48-5.15-3.64-4-1.84,1-2.42,4.22-2.42,6.28A10.25,10.25,0,0,0,139,16.57a2.5,2.5,0,0,0,2.2,1.34A4.15,4.15,0,0,0,145,15.17Z"/><path class="cls-1" d="M159.92,7v8.88c0,1.5.08,2,.76,2H161v.54H155.2v-.54h.26c.68,0,.76-.52.76-2V11.73h-4.48v4.16c0,1.5.08,2,.76,2h.26v.54H147v-.54h.26c.68,0,.76-.52.76-2V7c0-1.5-.06-2-.76-2H147V4.45h5.76V5h-.26c-.68,0-.76.52-.76,2v4.16h4.48V7c0-1.5-.08-2-.76-2h-.26V4.45H161V5h-.28C160,5,159.92,5.51,159.92,7Z"/><path class="cls-1" d="M173.12,4.45v4.9C172.2,6.41,170.78,5,167.88,5h-1.26v6.18h1.3c1.6,0,2.52-.62,2.78-2v4.48c-.26-1.34-1.18-2-2.78-2h-1.3v6.18h1.26c2.9,0,4.32-1.42,5.24-4.36v4.9H161.88v-.54h.26c.7,0,.76-.52.76-2V7c0-1.5-.06-2-.76-2h-.26V4.45Z"/><path class="cls-1" d="M187.92,17.91l0,.54h-5.76l0-.54h.28c.68,0,.54-.52-.06-2l-1.28-3.16h-1.88v3.16c0,1.5.08,2,.76,2h.26v.54h-5.76v-.54h.26c.68,0,.76-.52.76-2V7c0-1.5-.06-2-.76-2h-.26V4.45h9.74a2.44,2.44,0,0,1,2.6,2.4v3.26a2.64,2.64,0,0,1-2,2.56l1.3,3.22c.6,1.5.9,2,1.58,2Zm-4.8-11A2,2,0,0,0,181,5h-1.74v7.2H181A2.16,2.16,0,0,0,183.12,10Z"/><path class="cls-2" d="M14.72,17.41V18H9v-.54H9.1c.44,0,.64-.62.34-1.78l-.68-2.26H3.9l-.58,2.14c-.34,1.24-.14,1.86.32,1.9H4V18H1v-.54h.46c.7,0,1-.84,1.28-1.76L5.92,4h3.7l3.54,11.74v0c.26.92.58,1.72,1.28,1.76ZM8.6,12.83,6.2,4.89,4,12.83Z"/><path class="cls-2" d="M27.74,4v.54h-.56c-.68,0-1.48.52-1.48,2v7.34c0,2-.62,4.1-3.44,4.1h-3c-3.14,0-4.1-1.84-4.1-4.1V6.51c0-1.5-.06-2-.76-2h-.26V4h5.76v.54h-.26c-.68,0-.76.52-.76,2v7.42c-.12,3.16,1.76,3.52,3.26,3.46,2.16-.08,3-1.56,3-3.46V6.51c0-1.5-.52-2-1.2-2h-1V4Z"/><path class="cls-2" d="M41.66,17.41l0,.54H35.92l0-.54h.28c.68,0,.54-.52-.06-2l-1.28-3.16H33v3.16c0,1.5.08,2,.76,2H34V18H28.22v-.54h.26c.68,0,.76-.52.76-2V6.51c0-1.5-.06-2-.76-2h-.26V4H38a2.44,2.44,0,0,1,2.6,2.4V9.61a2.64,2.64,0,0,1-2,2.56l1.3,3.22c.6,1.5.9,2,1.58,2Zm-4.8-11A2,2,0,0,0,34.7,4.49H33v7.2H34.7a2.16,2.16,0,0,0,2.16-2.16Z"/><path class="cls-2" d="M53.62,4v4.9c-.92-2.94-2.34-4.36-5.24-4.36H47.12v6.18h1.3c1.6,0,2.52-.62,2.78-2v4.48c-.26-1.34-1.18-2-2.78-2h-1.3v6.18h1.26c2.9,0,4.32-1.42,5.24-4.36V18H42.38v-.54h.26c.7,0,.76-.52.76-2V6.51c0-1.5-.06-2-.76-2h-.26V4Z"/><path class="cls-2" d="M66,13.05V18H55v-.54h.26c.68,0,.76-.52.76-2V6.51c0-1.5-.06-2-.76-2H55V4h5.76v.54h-.26c-.68,0-.76.52-.76,2v10.9H60.8C63.7,17.41,65.12,16,66,13.05Z"/><path class="cls-2" d="M71.56,6.51v8.88c0,1.5.08,2,.76,2h.26V18H66.82v-.54h.26c.7,0,.76-.52.76-2V6.51c0-1.5-.06-2-.76-2h-.26V4h5.76v.54h-.26C71.64,4.49,71.56,5,71.56,6.51Z"/><path class="cls-2" d="M86.7,17.41V18H80.94v-.54h.14c.44,0,.64-.62.34-1.78l-.68-2.26H75.88l-.58,2.14c-.34,1.24-.14,1.86.32,1.9H76V18H73v-.54h.46c.7,0,1-.84,1.28-1.76L77.9,4h3.7l3.54,11.74v0c.26.92.58,1.72,1.28,1.76Zm-6.12-4.58-2.4-7.94L76,12.83Z"/><path class="cls-2" d="M105.84,4v4.9c-.92-2.94-2.34-4.36-5.24-4.36H99.34v6.18h1.3c1.6,0,2.52-.62,2.78-2v4.48c-.26-1.34-1.18-2-2.78-2h-1.3v4.16c0,1.5.08,2,.76,2h.26V18H94.6v-.54h.26c.68,0,.76-.52.76-2V6.51c0-1.5-.08-2-.76-2H94.6V4Z"/><path class="cls-2" d="M120.74,11c0,3.86-2.06,7-7,7s-7-3.14-7-7,1.94-7,7-7S120.74,7.09,120.74,11ZM117,11c0-3.56-1-6.42-3.3-6.46s-3.3,2.9-3.3,6.46.9,6.46,3.3,6.46S117,14.51,117,11Z"/><path class="cls-2" d="M135.24,4v.54h-.56c-.68,0-1.48.52-1.48,2v7.34c0,2-.62,4.1-3.44,4.1h-3c-3.14,0-4.1-1.84-4.1-4.1V6.51c0-1.5-.06-2-.76-2h-.26V4h5.76v.54h-.26c-.68,0-.76.52-.76,2v7.42c-.12,3.16,1.76,3.52,3.26,3.46,2.16-.08,3-1.56,3-3.46V6.51c0-1.5-.52-2-1.2-2h-1V4Z"/><path class="cls-2" d="M146,14.67l1.14,1.14c-1,1.34-2.52,2-4.92,2.14h-.4c-4.94,0-6.7-3.14-6.7-7s1.78-7,6.7-7c2.62,0,4.38.74,5.4,2.32L144.9,8.69c.72-2.74-1.48-5.15-3.64-4-1.84,1-2.42,4.22-2.42,6.28A10.25,10.25,0,0,0,140,16.07a2.5,2.5,0,0,0,2.2,1.34A4.15,4.15,0,0,0,146,14.67Z"/><path class="cls-2" d="M160.92,6.51v8.88c0,1.5.08,2,.76,2H162V18H156.2v-.54h.26c.68,0,.76-.52.76-2V11.23h-4.48v4.16c0,1.5.08,2,.76,2h.26V18H148v-.54h.26c.68,0,.76-.52.76-2V6.51c0-1.5-.06-2-.76-2H148V4h5.76v.54h-.26c-.68,0-.76.52-.76,2v4.16h4.48V6.51c0-1.5-.08-2-.76-2h-.26V4H162v.54h-.28C161,4.49,160.92,5,160.92,6.51Z"/><path class="cls-2" d="M174.12,4v4.9c-.92-2.94-2.34-4.36-5.24-4.36h-1.26v6.18h1.3c1.6,0,2.52-.62,2.78-2v4.48c-.26-1.34-1.18-2-2.78-2h-1.3v6.18h1.26c2.9,0,4.32-1.42,5.24-4.36V18H162.88v-.54h.26c.7,0,.76-.52.76-2V6.51c0-1.5-.06-2-.76-2h-.26V4Z"/><path class="cls-2" d="M188.92,17.41l0,.54h-5.76l0-.54h.28c.68,0,.54-.52-.06-2l-1.28-3.16h-1.88v3.16c0,1.5.08,2,.76,2h.26V18h-5.76v-.54h.26c.68,0,.76-.52.76-2V6.51c0-1.5-.06-2-.76-2h-.26V4h9.74a2.44,2.44,0,0,1,2.6,2.4V9.61a2.64,2.64,0,0,1-2,2.56l1.3,3.22c.6,1.5.9,2,1.58,2Zm-4.8-11A2,2,0,0,0,182,4.49h-1.74v7.2H182a2.16,2.16,0,0,0,2.16-2.16Z"/><path class="cls-1" d="M42.47,2.72v-.3L44.65.5h5V1l-3.26,1.7Z"/><path class="cls-2" d="M43.47,2.22v-.3L45.65,0h5V.52l-3.26,1.7Z"/></g></g></svg>