<svg xmlns="http://www.w3.org/2000/svg" viewBox="0 0 74.23 149.15"><title>Fichier 9titregraphismemobile</title><g id="Calque_2" data-name="Calque 2"><g id="Calque_1-2" data-name="Calque 1"><path d="M13.4,123.52s1.29.94,5.43.94h8.52v11.21c0,3.09-.19,7.35-2.23,9.89A8.4,8.4,0,0,1,20,148.29a32.51,32.51,0,0,1-6.34.47c-7.26,0-13.2-3.2-13.63-12a9.57,9.57,0,0,1,0-1.09c0-6.92,1.6-9.85,4.53-11.57l4.73,4.58c-3.4-.9-7.66,1.25-8.32,4.8-.39,2.31.82,4.69,3.44,6.06a21.17,21.17,0,0,0,9.29,2c4.11,0,12.59-.27,12.63-6.6a7,7,0,0,0-.75-3.25H18.83c-3.12,0-4.92,1.26-5.43,3.83Z"/><path d="M26.3,95.2l1.05,0v11.25l-1.05,0v-.55c0-1.33-1-1.05-3.95.12l-6.18,2.5v3.67h6.18c2.93,0,3.95-.15,3.95-1.48v-.51h1.05v11.25H26.3V121c0-1.33-1-1.49-3.95-1.49H5c-2.93,0-3.95.12-3.95,1.49v.5H0v-19a4.76,4.76,0,0,1,4.69-5.07h6.37a5.16,5.16,0,0,1,5,4l6.29-2.54C25.28,97.62,26.3,97,26.3,95.7ZM4.84,104.57c-2.3,0-3.79,1.88-3.79,4.22v3.4H15.12v-3.4a4.23,4.23,0,0,0-4.22-4.22Z"/><path d="M26.3,68.05h1.05V79.3H26.3V79c-.08-.86-1.22-1.25-3.48-.67L18.4,79.69v9.5l4.18,1.13c2.43.66,3.64.27,3.72-.63v-.78h1.05v5.94H26.3V94c-.08-1.36-1.64-2-3.44-2.5L0,85.24V78L22.93,71.1h-.07c1.8-.51,3.36-1.14,3.44-2.51ZM17.35,80,1.84,84.69l15.51,4.22Z"/><path d="M46.88,130.12A4.77,4.77,0,0,1,51.57,125h6.36a5.13,5.13,0,0,1,5.12,5.08v9.77h6.18c2.93,0,3.94-.16,3.94-1.49v-.5h1.06v11.25H73.17v-.51c0-1.33-1-1.48-3.94-1.48H51.88c-2.93,0-4,.11-4,1.48v.51h-1Zm4.84,2.15c-2.3,0-3.79,1.92-3.79,4.22v3.4H62v-3.4a4.26,4.26,0,0,0-4.22-4.22Z"/><path d="M51.88,97.93H69.23c2.93,0,3.94-.15,3.94-1.48V95.9h1.06v11.25H73.17v-.5c0-1.33-1-1.49-3.94-1.49H61.1v8.75h8.13c2.93,0,3.94-.15,3.94-1.48v-.51h1.06v11.25H73.17v-.51c0-1.32-1-1.48-3.94-1.48H51.88c-2.93,0-4,.12-4,1.48v.51h-1V111.92h1v.51c0,1.33,1,1.48,4,1.48H60v-8.75H51.88c-2.93,0-4,.16-4,1.49v.5h-1V95.9h1v.55C47.93,97.78,49,97.93,51.88,97.93Z"/><path d="M51.88,84.85H69.23c2.93,0,3.94-.16,3.94-1.49v-.5h1.06V94.11H73.17V93.6c0-1.37-1-1.48-3.94-1.48H51.88c-2.93,0-4,.11-4,1.48v.51h-1V82.86h1v.5C47.93,84.69,49,84.85,51.88,84.85Z"/><path d="M71.14,59.85a11.72,11.72,0,0,1,3,7.73c.19,3.17-.51,10.12-2.81,13l-4.89-2A11.21,11.21,0,0,0,72.9,66.1c-.51-2.78-2.35-5.47-4.93-3.17-3,2.66-4.88,10.79-6.56,13.48-2.22,3.52-5.12,5.24-9.18,4C48,79,46.72,74.26,46.76,69.46c.08-3.79,1.21-7.7,3.59-10l2.54,2.11c-4.22,2.34-7.07,13.4-1.83,14.14C56.49,76.41,57.35,63,62,59A6.74,6.74,0,0,1,71.14,59.85Z"/><path d="M51.88,25.78H69.23c2.93,0,3.94-.16,3.94-1.48v-.51h1.06V35H73.17v-.51c0-1.33-1-1.48-3.94-1.48H49.69l24.54,5.74V46L50.32,52.27H69.23c2.93,0,3.94-1,3.94-2.34v-2h1.06v9.38H73.17V56.22c0-1.33-1-2.89-3.94-2.89H51.88c-2.93,0-4,1.56-4,2.89v1.09h-1V45.94l25.2-6.6-25.2-5.9V23.79h1v.51C47.93,25.62,49,25.78,51.88,25.78Z"/><path d="M46.88,0h9.57c-5.74,1.8-8.52,4.57-8.52,10.24V12.7H60V10.16C60,7,58.79,5.24,56.18,4.73h8.75c-2.62.51-3.83,2.3-3.83,5.43V12.7H73.17V10.24C73.17,4.57,70.4,1.8,64.65,0h9.58V22H73.17v-.51c0-1.37-1-1.48-3.94-1.48H51.88c-2.93,0-4,.11-4,1.48V22h-1Z"/></g></g></svg>