<svg xmlns="http://www.w3.org/2000/svg" viewBox="0 0 177.78 19.42"><defs><style>.cls-1{fill:#597ef7;}</style></defs><title>Fichier 13titreaureliableu</title><g id="Calque_2" data-name="Calque 2"><g id="Calque_1-2" data-name="Calque 1"><path class="cls-1" d="M8,.5h3.17c0,5.12,2.58,7.46,4.1,11a19.12,19.12,0,0,1,1.47,7.62H13.35A18.66,18.66,0,0,0,12.42,13H6.72a7.73,7.73,0,0,1-3.18,6.18H.19L0,18.7c3.78-3.06,3.94-6.45,4.24-9.78C4.5,6,4.85,3.06,8,.5Zm3.81,10.87C10.39,8.41,8.31,6.31,8,2.21A12.87,12.87,0,0,0,6.58,8.92c0,.83.08,1.65.14,2.45Z"/><path class="cls-1" d="M21.35,5.83a5.3,5.3,0,0,1,1,3c0,1.87-1,3.54-1,5.49,0,1.68.8,2.67,2.37,2.67a3.85,3.85,0,0,0,2.93-1.55V5.83h2.93V19.15H26.65v-.34a8.55,8.55,0,0,0,1.57-2.94l-.66-.37c-1,2.05-2.3,3.92-4.83,3.92s-4.23-1.76-4.23-4.56c0-2.1.95-3.83.95-5.83a5.89,5.89,0,0,0-.95-3.2Z"/><path class="cls-1" d="M32.78,5.83h2.93v.35a8.57,8.57,0,0,0-1.57,2.93l.67.37c.34-.75.64-1.39.9-1.86.88-1.66,1.57-2.06,2.85-2.06,1.63,0,2.48.91,2.48,1.92,0,1.23-1.28,2-.9,2.83l-.16.45-2.16.45a2.21,2.21,0,0,1-.24-1c0-1.22.85-2.18.05-2.18-.61,0-1.2.58-1.92,1.54v9.62H32.78Z"/><path class="cls-1" d="M42.24,12.49c0-4,2.67-6.93,5.89-6.93C51,5.56,52.66,7.8,52.66,11v1.06H44.8c.35,3,2,4.94,4.21,4.94a4.4,4.4,0,0,0,3.23-1.55l.69.35c-1.31,2.66-2.72,3.62-4.74,3.62C44.64,19.42,42.24,16.51,42.24,12.49Zm4.69-5.3c-2.1,0-2.18,2.24-2.18,3.81H50C50,8.73,48.74,7.19,46.93,7.19Z"/><path class="cls-1" d="M55.59.5h2.94V19.15H55.59Z"/><path class="cls-1" d="M63,.66A1.71,1.71,0,0,1,64.84,2.5a1.83,1.83,0,0,1-3.65,0A1.72,1.72,0,0,1,63,.66ZM61.67,5.83H64.6V19.15H61.67Z"/><path class="cls-1" d="M74.33,9.67c1-.4,1.46-.91,1.46-1.52s-.53-1-1.22-1a2.78,2.78,0,0,0-1.12.29L68.63,9.88a1.52,1.52,0,0,1-.59.19c-.16,0-.27-.06-.27-.19l-.21-3c1.71,0,3.2-1.33,5.36-1.33a4.1,4.1,0,0,1,4.34,4.13v9.48H74.33v-.34a8.55,8.55,0,0,0,1.57-2.94l-.66-.37c-.32.67-.62,1.23-.91,1.71-.93,1.57-1.81,2.21-3.49,2.21-2.21,0-4.13-1.17-4.13-3.44C66.71,13.29,69.37,11.69,74.33,9.67ZM71.93,17c1.25,0,1.57-.64,2.4-1.55V10.71c-3.17,1.83-4.77,3.11-4.77,4.42A2.14,2.14,0,0,0,71.93,17Z"/><path class="cls-1" d="M88,.77C89.36.77,90.19.5,92.16.5c2.8,0,3,.53,5.44.53l-.22,2.88c0,.13-.1.19-.45.19C94.75,4.1,93.65,2,91.47,2c-.85,0-1.15.32-1.15.77V8.57c0,.48.35.46,1.55.46,1.76,0,1.92.8,4.39.8l-.21,2.61c0,.13-.1.19-.45.19-2.08,0-3.17-1.68-5.28-1.87v8.66h-3.2V.77Z"/><path class="cls-1" d="M105.3,5.56c3.7,0,6.34,2.88,6.34,6.93s-2.64,6.93-6.34,6.93-6.37-2.91-6.37-6.93S101.6,5.56,105.3,5.56Zm3.81,8.77c0-3.78-2.37-7.14-5.09-7.14-1.73,0-2.58,1.2-2.58,3.46,0,3.76,2.42,7.14,5.14,7.14C108.28,17.79,109.11,16.59,109.11,14.33Z"/><path class="cls-1" d="M117.16,5.83a5.3,5.3,0,0,1,1,3c0,1.87-1,3.54-1,5.49,0,1.68.8,2.67,2.37,2.67a3.81,3.81,0,0,0,2.93-1.55V5.83h2.93V19.15h-2.93v-.34A8.56,8.56,0,0,0,124,15.87l-.67-.37c-1,2.05-2.29,3.92-4.82,3.92s-4.24-1.76-4.24-4.56c0-2.1,1-3.83,1-5.83a5.91,5.91,0,0,0-1-3.2Z"/><path class="cls-1" d="M130.57,10.89c0,3.44,1.62,6.11,4.26,6.11a4.4,4.4,0,0,0,3.23-1.55l.69.35c-1.31,2.66-2.72,3.62-4.75,3.62-3.54,0-5.94-2.91-5.94-6.93s2.67-6.93,6.37-6.93c1.95,0,2.29.8,4,.8L138.21,9c0,.14-.1.19-.45.19-2.18,0-2.5-2-4.66-2C131.42,7.19,130.57,8.39,130.57,10.89Z"/><path class="cls-1" d="M141.41.5h2.94V6.18a8.42,8.42,0,0,0-1.58,2.93l.67.37c1-2.05,2.29-3.92,4.82-3.92s4.24,1.76,4.24,4.56c0,2.1-1,3.84-1,5.84a5.9,5.9,0,0,0,1,3.19h-2.85a5.3,5.3,0,0,1-1-3c0-1.86,1-3.54,1-5.49,0-1.68-.8-2.66-2.37-2.66a3.83,3.83,0,0,0-2.93,1.54v9.62h-2.94Z"/><path class="cls-1" d="M155.17,12.49c0-4,2.66-6.93,5.89-6.93,2.85,0,4.52,2.24,4.52,5.44v1.06h-7.86c.35,3,2,4.94,4.21,4.94a4.4,4.4,0,0,0,3.23-1.55l.69.35c-1.3,2.66-2.72,3.62-4.74,3.62C157.56,19.42,155.17,16.51,155.17,12.49Zm4.69-5.3c-2.11,0-2.19,2.24-2.19,3.81h5.22C162.89,8.73,161.67,7.19,159.86,7.19Z"/><path class="cls-1" d="M168.52,5.83h2.93v.35a8.41,8.41,0,0,0-1.57,2.93l.66.37c.35-.75.64-1.39.91-1.86C172.33,6,173,5.56,174.3,5.56c1.63,0,2.48.91,2.48,1.92,0,1.23-1.28,2-.91,2.83l-.16.45-2.16.45a2.31,2.31,0,0,1-.23-1c0-1.22.85-2.18.05-2.18-.61,0-1.2.58-1.92,1.54v9.62h-2.93Z"/><path d="M9,0h3.17c0,5.12,2.58,7.46,4.1,11a19.12,19.12,0,0,1,1.47,7.62H14.35a18.66,18.66,0,0,0-.93-6.18H7.72a7.73,7.73,0,0,1-3.18,6.18H1.19L1,18.2c3.78-3.06,3.94-6.45,4.24-9.78C5.5,5.46,5.85,2.56,9,0Zm3.81,10.87C11.39,7.91,9.31,5.81,9,1.71A12.87,12.87,0,0,0,7.58,8.42c0,.83.08,1.65.14,2.45Z"/><path d="M22.35,5.33a5.3,5.3,0,0,1,1,3c0,1.87-1,3.54-1,5.49,0,1.68.8,2.67,2.37,2.67A3.85,3.85,0,0,0,27.65,15V5.33h2.93V18.65H27.65v-.34a8.55,8.55,0,0,0,1.57-2.94L28.56,15c-1,2.05-2.3,3.92-4.83,3.92s-4.23-1.76-4.23-4.56c0-2.1.95-3.83.95-5.83a5.89,5.89,0,0,0-.95-3.2Z"/><path d="M33.78,5.33h2.93v.35a8.57,8.57,0,0,0-1.57,2.93l.67.37c.34-.75.64-1.39.9-1.86.88-1.66,1.57-2.06,2.85-2.06C41.19,5.06,42,6,42,7c0,1.23-1.28,2-.9,2.83l-.16.45-2.16.45a2.21,2.21,0,0,1-.24-1c0-1.22.85-2.18.05-2.18-.61,0-1.2.58-1.92,1.54v9.62H33.78Z"/><path d="M43.24,12c0-4,2.67-6.93,5.89-6.93,2.85,0,4.53,2.24,4.53,5.44v1.06H45.8c.35,3,2,4.94,4.21,4.94A4.4,4.4,0,0,0,53.24,15l.69.35c-1.31,2.66-2.72,3.62-4.74,3.62C45.64,18.92,43.24,16,43.24,12Zm4.69-5.3c-2.1,0-2.18,2.24-2.18,3.81H51C51,8.23,49.74,6.69,47.93,6.69Z"/><path d="M56.59,0h2.94V18.65H56.59Z"/><path d="M64,.16A1.71,1.71,0,0,1,65.84,2a1.83,1.83,0,0,1-3.65,0A1.72,1.72,0,0,1,64,.16ZM62.67,5.33H65.6V18.65H62.67Z"/><path d="M75.33,9.17c1-.4,1.46-.91,1.46-1.52s-.53-1-1.22-1A2.78,2.78,0,0,0,74.45,7L69.63,9.38a1.52,1.52,0,0,1-.59.19c-.16,0-.27-.06-.27-.19l-.21-3c1.71,0,3.2-1.33,5.36-1.33a4.1,4.1,0,0,1,4.34,4.13v9.48H75.33v-.34a8.55,8.55,0,0,0,1.57-2.94L76.24,15c-.32.67-.62,1.23-.91,1.71-.93,1.57-1.81,2.21-3.49,2.21-2.21,0-4.13-1.17-4.13-3.44C67.71,12.79,70.37,11.19,75.33,9.17Zm-2.4,7.33c1.25,0,1.57-.64,2.4-1.55V10.21c-3.17,1.83-4.77,3.11-4.77,4.42A2.14,2.14,0,0,0,72.93,16.5Z"/><path d="M89,.27C90.36.27,91.19,0,93.16,0c2.8,0,3,.53,5.44.53l-.22,2.88c0,.13-.1.19-.45.19-2.18,0-3.28-2.13-5.46-2.13-.85,0-1.15.32-1.15.77V8.07c0,.48.35.46,1.55.46,1.76,0,1.92.8,4.39.8l-.21,2.61c0,.13-.1.19-.45.19-2.08,0-3.17-1.68-5.28-1.87v8.66h-3.2V.27Z"/><path d="M106.3,5.06c3.7,0,6.34,2.88,6.34,6.93s-2.64,6.93-6.34,6.93S99.93,16,99.93,12,102.6,5.06,106.3,5.06Zm3.81,8.77c0-3.78-2.37-7.14-5.09-7.14-1.73,0-2.58,1.2-2.58,3.46,0,3.76,2.42,7.14,5.14,7.14C109.28,17.29,110.11,16.09,110.11,13.83Z"/><path d="M118.16,5.33a5.3,5.3,0,0,1,1,3c0,1.87-1,3.54-1,5.49,0,1.68.8,2.67,2.37,2.67A3.81,3.81,0,0,0,123.46,15V5.33h2.93V18.65h-2.93v-.34A8.56,8.56,0,0,0,125,15.37l-.67-.37c-1,2.05-2.29,3.92-4.82,3.92s-4.24-1.76-4.24-4.56c0-2.1,1-3.83,1-5.83a5.91,5.91,0,0,0-1-3.2Z"/><path d="M131.57,10.39c0,3.44,1.62,6.11,4.26,6.11A4.4,4.4,0,0,0,139.06,15l.69.35C138.44,18,137,18.92,135,18.92c-3.54,0-5.94-2.91-5.94-6.93s2.67-6.93,6.37-6.93c1.95,0,2.29.8,4,.8l-.22,2.61c0,.14-.1.19-.45.19-2.18,0-2.5-2-4.66-2C132.42,6.69,131.57,7.89,131.57,10.39Z"/><path d="M142.41,0h2.94V5.68a8.42,8.42,0,0,0-1.58,2.93l.67.37c1-2.05,2.29-3.92,4.82-3.92s4.24,1.76,4.24,4.56c0,2.1-1,3.84-1,5.84a5.9,5.9,0,0,0,1,3.19h-2.85a5.3,5.3,0,0,1-1-3c0-1.86,1-3.54,1-5.49,0-1.68-.8-2.66-2.37-2.66A3.83,3.83,0,0,0,145.35,9v9.62h-2.94Z"/><path d="M156.17,12c0-4,2.66-6.93,5.89-6.93,2.85,0,4.52,2.24,4.52,5.44v1.06h-7.86c.35,3,2,4.94,4.21,4.94A4.4,4.4,0,0,0,166.16,15l.69.35c-1.3,2.66-2.72,3.62-4.74,3.62C158.56,18.92,156.17,16,156.17,12Zm4.69-5.3c-2.11,0-2.19,2.24-2.19,3.81h5.22C163.89,8.23,162.67,6.69,160.86,6.69Z"/><path d="M169.52,5.33h2.93v.35a8.41,8.41,0,0,0-1.57,2.93l.66.37c.35-.75.64-1.39.91-1.86.88-1.66,1.57-2.06,2.85-2.06,1.63,0,2.48.91,2.48,1.92,0,1.23-1.28,2-.91,2.83l-.16.45-2.16.45a2.31,2.31,0,0,1-.23-1c0-1.22.85-2.18.05-2.18-.61,0-1.2.58-1.92,1.54v9.62h-2.93Z"/><path class="cls-1" d="M45.81,5H44.05l3-2.87h2.7Z"/><path d="M47.31,4H45.55l3-2.87h2.7Z"/></g></g></svg>